<svg width="504" height="277" viewBox="0 0 504 277" fill="none" xmlns="http://www.w3.org/2000/svg">
<path d="M352 136.5C352 197.527 302.527 247 241.5 247C180.473 247 131 197.527 131 136.5C131 75.4725 180.473 26 241.5 26C302.527 26 352 75.4725 352 136.5ZM159.382 136.5C159.382 181.852 196.148 218.618 241.5 218.618C286.852 218.618 323.618 181.852 323.618 136.5C323.618 91.1476 286.852 54.3822 241.5 54.3822C196.148 54.3822 159.382 91.1476 159.382 136.5Z" fill="#D9D9D9"/>
<path d="M187.997 233.183C203.787 241.921 221.477 246.659 239.521 246.982C257.564 247.306 275.413 243.205 291.506 235.038L278.662 209.728C266.702 215.797 253.438 218.845 240.029 218.605C226.62 218.364 213.474 214.844 201.739 208.35L187.997 233.183Z" fill="#0081CF"/>
<path d="M291.375 235.104C309.609 225.881 324.929 211.782 335.631 194.375C346.334 176.968 352 156.934 352 136.5L323.618 136.5C323.618 151.686 319.407 166.574 311.453 179.51C303.5 192.446 292.115 202.923 278.564 209.777L291.375 235.104Z" fill="#845EC2"/>
<path d="M131.216 129.591C129.909 150.462 134.551 171.276 144.603 189.615C154.655 207.953 169.704 223.062 188.003 233.187L201.744 208.352C188.145 200.828 176.961 189.6 169.491 175.972C162.021 162.344 158.571 146.876 159.543 131.365L131.216 129.591Z" fill="#2C73D2"/>
<path d="M168.423 53.6147C157.538 63.2114 148.65 74.8579 142.267 87.8895C135.883 100.921 132.129 115.082 131.218 129.565L159.544 131.346C160.221 120.583 163.011 110.06 167.755 100.375C172.499 90.6908 179.104 82.0357 187.193 74.904L168.423 53.6147Z" fill="#008E9B"/>
<path d="M352 136.5C352 115.236 345.864 94.4227 334.329 76.5587C322.794 58.6948 306.35 44.5385 286.969 35.7885C267.588 27.0385 246.094 24.0664 225.066 27.2288C204.038 30.3913 184.37 39.5539 168.42 53.6174L187.191 74.906C199.044 64.4548 213.661 57.6456 229.287 55.2954C244.914 52.9452 260.887 55.1539 275.29 61.6565C289.693 68.159 301.914 78.6792 310.486 91.9548C319.058 105.23 323.618 120.697 323.618 136.5H352Z" fill="#0089BA"/>
<path d="M284.5 55.5L327.5 12.5H359.5" stroke="#0089BA"/>
<path d="M324.5 184H358L379.5 176" stroke="#845EC2"/>
<circle cx="360" cy="12" r="4" fill="#0089BA"/>
<path d="M375.148 18V6.36364H379.511C380.405 6.36364 381.155 6.5303 381.761 6.86364C382.371 7.19697 382.831 7.6553 383.142 8.23864C383.456 8.81818 383.614 9.47727 383.614 10.2159C383.614 10.9621 383.456 11.625 383.142 12.2045C382.828 12.7841 382.364 13.2405 381.75 13.5739C381.136 13.9034 380.381 14.0682 379.483 14.0682H376.591V12.3352H379.199C379.722 12.3352 380.15 12.2443 380.483 12.0625C380.816 11.8807 381.063 11.6307 381.222 11.3125C381.384 10.9943 381.466 10.6288 381.466 10.2159C381.466 9.80303 381.384 9.43939 381.222 9.125C381.063 8.81061 380.814 8.56629 380.477 8.39205C380.144 8.21402 379.714 8.125 379.188 8.125H377.256V18H375.148ZM390.916 14.3295V9.27273H392.973V18H390.979V16.4489H390.888C390.691 16.9375 390.367 17.3371 389.916 17.6477C389.469 17.9583 388.918 18.1136 388.263 18.1136C387.691 18.1136 387.185 17.9867 386.746 17.733C386.31 17.4754 385.969 17.1023 385.723 16.6136C385.477 16.1212 385.354 15.5265 385.354 14.8295V9.27273H387.411V14.5114C387.411 15.0644 387.562 15.5038 387.865 15.8295C388.168 16.1553 388.566 16.3182 389.058 16.3182C389.361 16.3182 389.655 16.2443 389.939 16.0966C390.223 15.9489 390.456 15.7292 390.638 15.4375C390.823 15.142 390.916 14.7727 390.916 14.3295ZM397.145 12.8864V18H395.088V9.27273H397.054V10.7557H397.156C397.357 10.267 397.677 9.87879 398.116 9.59091C398.56 9.30303 399.107 9.15909 399.759 9.15909C400.361 9.15909 400.885 9.28788 401.332 9.54545C401.783 9.80303 402.132 10.1761 402.378 10.6648C402.628 11.1534 402.751 11.7462 402.747 12.4432V18H400.69V12.7614C400.69 12.178 400.539 11.7216 400.236 11.392C399.937 11.0625 399.522 10.8977 398.991 10.8977C398.632 10.8977 398.312 10.9773 398.031 11.1364C397.755 11.2917 397.537 11.517 397.378 11.8125C397.223 12.108 397.145 12.4659 397.145 12.8864ZM408.702 18.1705C407.827 18.1705 407.071 17.9886 406.435 17.625C405.802 17.2576 405.315 16.7386 404.974 16.0682C404.634 15.3939 404.463 14.6004 404.463 13.6875C404.463 12.7898 404.634 12.0019 404.974 11.3239C405.319 10.642 405.8 10.1117 406.418 9.73295C407.035 9.35038 407.76 9.15909 408.594 9.15909C409.132 9.15909 409.639 9.24621 410.116 9.42045C410.598 9.59091 411.022 9.85606 411.389 10.2159C411.76 10.5758 412.052 11.0341 412.264 11.5909C412.476 12.1439 412.582 12.803 412.582 13.5682V14.1989H405.429V12.8125H410.611C410.607 12.4186 410.522 12.0682 410.355 11.7614C410.188 11.4508 409.955 11.2064 409.656 11.0284C409.361 10.8504 409.016 10.7614 408.622 10.7614C408.202 10.7614 407.832 10.8636 407.514 11.0682C407.196 11.2689 406.948 11.5341 406.77 11.8636C406.596 12.1894 406.507 12.5473 406.503 12.9375V14.1477C406.503 14.6553 406.596 15.0909 406.781 15.4545C406.967 15.8144 407.226 16.0909 407.56 16.2841C407.893 16.4735 408.283 16.5682 408.73 16.5682C409.029 16.5682 409.3 16.5265 409.543 16.4432C409.785 16.3561 409.995 16.2292 410.173 16.0625C410.351 15.8958 410.486 15.6894 410.577 15.4432L412.497 15.6591C412.376 16.1667 412.145 16.6098 411.804 16.9886C411.467 17.3636 411.035 17.6553 410.509 17.8636C409.982 18.0682 409.38 18.1705 408.702 18.1705ZM418.803 12.1818C418.803 10.7614 418.99 9.45644 419.365 8.26705C419.744 7.07386 420.306 5.97159 421.053 4.96023H422.99C422.702 5.33523 422.433 5.79545 422.183 6.34091C421.933 6.88258 421.715 7.47727 421.53 8.125C421.348 8.76894 421.204 9.4375 421.098 10.1307C420.996 10.8239 420.945 11.5076 420.945 12.1818C420.945 13.0795 421.034 13.9886 421.212 14.9091C421.393 15.8295 421.638 16.6837 421.945 17.4716C422.255 18.2557 422.604 18.8977 422.99 19.3977H421.053C420.306 18.3864 419.744 17.286 419.365 16.0966C418.99 14.9034 418.803 13.5985 418.803 12.1818ZM428.741 18.1591C427.923 18.1591 427.196 18.0189 426.56 17.7386C425.927 17.4583 425.427 17.0682 425.06 16.5682C424.692 16.0682 424.497 15.4905 424.474 14.8352H426.611C426.63 15.1496 426.734 15.4242 426.923 15.6591C427.113 15.8902 427.365 16.0701 427.679 16.1989C427.993 16.3277 428.346 16.392 428.736 16.392C429.152 16.392 429.522 16.3201 429.844 16.1761C430.166 16.0284 430.418 15.8239 430.599 15.5625C430.781 15.3011 430.87 15 430.866 14.6591C430.87 14.3068 430.779 13.9962 430.594 13.7273C430.408 13.4583 430.139 13.2481 429.787 13.0966C429.438 12.9451 429.018 12.8693 428.526 12.8693H427.497V11.2443H428.526C428.931 11.2443 429.285 11.1742 429.588 11.0341C429.895 10.8939 430.135 10.697 430.31 10.4432C430.484 10.1856 430.569 9.88826 430.565 9.55114C430.569 9.22159 430.495 8.93561 430.344 8.69318C430.196 8.44697 429.986 8.25568 429.713 8.11932C429.444 7.98295 429.128 7.91477 428.764 7.91477C428.408 7.91477 428.079 7.97917 427.776 8.10795C427.473 8.23674 427.228 8.42045 427.043 8.65909C426.857 8.89394 426.759 9.17424 426.747 9.5H424.719C424.734 8.84848 424.921 8.27652 425.281 7.78409C425.645 7.28788 426.13 6.90151 426.736 6.625C427.342 6.3447 428.022 6.20455 428.776 6.20455C429.552 6.20455 430.226 6.35038 430.798 6.64205C431.374 6.92992 431.819 7.31818 432.134 7.80682C432.448 8.29545 432.605 8.83523 432.605 9.42614C432.609 10.0814 432.416 10.6307 432.026 11.0739C431.639 11.517 431.132 11.8068 430.503 11.9432V12.0341C431.321 12.1477 431.948 12.4508 432.384 12.9432C432.823 13.4318 433.041 14.0398 433.037 14.767C433.037 15.4186 432.851 16.0019 432.48 16.517C432.113 17.0284 431.605 17.4299 430.957 17.7216C430.313 18.0133 429.575 18.1591 428.741 18.1591ZM439.288 18.2216C438.353 18.2216 437.55 17.9848 436.879 17.5114C436.213 17.0341 435.699 16.3466 435.339 15.4489C434.983 14.5473 434.805 13.4621 434.805 12.1932C434.809 10.9242 434.989 9.8447 435.345 8.95455C435.705 8.06061 436.218 7.37879 436.885 6.90909C437.555 6.43939 438.357 6.20455 439.288 6.20455C440.22 6.20455 441.021 6.43939 441.692 6.90909C442.362 7.37879 442.875 8.06061 443.232 8.95455C443.591 9.84848 443.771 10.928 443.771 12.1932C443.771 13.4659 443.591 14.553 443.232 15.4545C442.875 16.3523 442.362 17.0379 441.692 17.5114C441.025 17.9848 440.224 18.2216 439.288 18.2216ZM439.288 16.4432C440.016 16.4432 440.589 16.0852 441.01 15.3693C441.434 14.6496 441.646 13.5909 441.646 12.1932C441.646 11.2689 441.55 10.4924 441.357 9.86364C441.163 9.23485 440.891 8.76136 440.538 8.44318C440.186 8.12121 439.769 7.96023 439.288 7.96023C438.565 7.96023 437.993 8.32008 437.572 9.03977C437.152 9.75568 436.94 10.8068 436.936 12.1932C436.932 13.1212 437.025 13.9015 437.214 14.5341C437.408 15.1667 437.68 15.6439 438.033 15.9659C438.385 16.2841 438.804 16.4432 439.288 16.4432ZM451.881 15.8182V15.2045C451.881 14.7538 451.975 14.339 452.165 13.9602C452.358 13.5814 452.638 13.2765 453.006 13.0455C453.373 12.8144 453.818 12.6989 454.341 12.6989C454.879 12.6989 455.33 12.8144 455.693 13.0455C456.057 13.2727 456.331 13.5758 456.517 13.9545C456.706 14.3333 456.801 14.75 456.801 15.2045V15.8182C456.801 16.2689 456.706 16.6837 456.517 17.0625C456.328 17.4413 456.049 17.7462 455.682 17.9773C455.318 18.2083 454.871 18.3239 454.341 18.3239C453.811 18.3239 453.362 18.2083 452.994 17.9773C452.627 17.7462 452.348 17.4413 452.159 17.0625C451.973 16.6837 451.881 16.2689 451.881 15.8182ZM453.364 15.2045V15.8182C453.364 16.1174 453.436 16.392 453.58 16.642C453.723 16.892 453.977 17.017 454.341 17.017C454.708 17.017 454.96 16.8939 455.097 16.6477C455.237 16.3977 455.307 16.1212 455.307 15.8182V15.2045C455.307 14.9015 455.241 14.625 455.108 14.375C454.975 14.1212 454.72 13.9943 454.341 13.9943C453.985 13.9943 453.733 14.1212 453.585 14.375C453.438 14.625 453.364 14.9015 453.364 15.2045ZM445.966 9.15909V8.54545C445.966 8.09091 446.063 7.67424 446.256 7.29545C446.449 6.91667 446.729 6.61364 447.097 6.38636C447.464 6.1553 447.909 6.03977 448.432 6.03977C448.966 6.03977 449.415 6.1553 449.778 6.38636C450.146 6.61364 450.422 6.91667 450.608 7.29545C450.794 7.67424 450.886 8.09091 450.886 8.54545V9.15909C450.886 9.61364 450.792 10.0303 450.602 10.4091C450.417 10.7841 450.14 11.0852 449.773 11.3125C449.405 11.5398 448.958 11.6534 448.432 11.6534C447.898 11.6534 447.447 11.5398 447.08 11.3125C446.716 11.0852 446.439 10.7822 446.25 10.4034C446.061 10.0246 445.966 9.60985 445.966 9.15909ZM447.46 8.54545V9.15909C447.46 9.46212 447.53 9.73864 447.67 9.98864C447.814 10.2348 448.068 10.358 448.432 10.358C448.795 10.358 449.045 10.2348 449.182 9.98864C449.322 9.73864 449.392 9.46212 449.392 9.15909V8.54545C449.392 8.24242 449.326 7.96591 449.193 7.71591C449.061 7.46212 448.807 7.33523 448.432 7.33523C448.072 7.33523 447.82 7.46212 447.676 7.71591C447.532 7.9697 447.46 8.24621 447.46 8.54545ZM446.614 18L454.614 6.36364H456.034L448.034 18H446.614ZM462.852 12.1818C462.852 13.5985 462.663 14.9034 462.284 16.0966C461.909 17.286 461.348 18.3864 460.602 19.3977H458.665C458.956 19.0227 459.225 18.5644 459.472 18.0227C459.722 17.4811 459.938 16.8864 460.119 16.2386C460.305 15.5909 460.449 14.9205 460.551 14.2273C460.657 13.5341 460.71 12.8523 460.71 12.1818C460.71 11.2841 460.619 10.375 460.438 9.45455C460.259 8.53409 460.015 7.67992 459.705 6.89205C459.398 6.10417 459.051 5.46023 458.665 4.96023H460.602C461.348 5.97159 461.909 7.07386 462.284 8.26705C462.663 9.45644 462.852 10.7614 462.852 12.1818Z" fill="#0089BA"/>
<path d="M13.1477 11.3636H15.7273L19.1818 19.7955H19.3182L22.7727 11.3636H25.3523V23H23.3295V15.0057H23.2216L20.0057 22.9659H18.4943L15.2784 14.9886H15.1705V23H13.1477V11.3636ZM33.1193 19.3295V14.2727H35.1761V23H33.1818V21.4489H33.0909C32.8939 21.9375 32.5701 22.3371 32.1193 22.6477C31.6723 22.9583 31.1212 23.1136 30.4659 23.1136C29.8939 23.1136 29.3883 22.9867 28.9489 22.733C28.5133 22.4754 28.1723 22.1023 27.9261 21.6136C27.6799 21.1212 27.5568 20.5265 27.5568 19.8295V14.2727H29.6136V19.5114C29.6136 20.0644 29.7652 20.5038 30.0682 20.8295C30.3712 21.1553 30.7689 21.3182 31.2614 21.3182C31.5644 21.3182 31.858 21.2443 32.142 21.0966C32.4261 20.9489 32.6591 20.7292 32.8409 20.4375C33.0265 20.142 33.1193 19.7727 33.1193 19.3295ZM37.2912 23V14.2727H39.2571V15.7557H39.3594C39.5412 15.2557 39.8423 14.8655 40.2628 14.5852C40.6832 14.3011 41.1851 14.1591 41.7685 14.1591C42.3594 14.1591 42.8575 14.303 43.2628 14.5909C43.6719 14.875 43.9598 15.2633 44.1264 15.7557H44.2173C44.4105 15.2708 44.7363 14.8845 45.1946 14.5966C45.6567 14.3049 46.2041 14.1591 46.8366 14.1591C47.6397 14.1591 48.295 14.4129 48.8026 14.9205C49.3101 15.428 49.5639 16.1686 49.5639 17.142V23H47.5014V17.4602C47.5014 16.9186 47.3575 16.5227 47.0696 16.2727C46.7817 16.0189 46.4295 15.892 46.0128 15.892C45.5166 15.892 45.1283 16.0473 44.848 16.358C44.5715 16.6648 44.4332 17.0644 44.4332 17.5568V23H42.4162V17.375C42.4162 16.9242 42.2798 16.5644 42.0071 16.2955C41.7382 16.0265 41.3859 15.892 40.9503 15.892C40.6548 15.892 40.3859 15.9678 40.1435 16.1193C39.901 16.267 39.7079 16.4773 39.5639 16.75C39.42 17.0189 39.348 17.3333 39.348 17.6932V23H37.2912ZM51.7415 23V11.3636H53.7983V15.7159H53.8835C53.9896 15.5038 54.1392 15.2784 54.3324 15.0398C54.5256 14.7973 54.7869 14.5909 55.1165 14.4205C55.446 14.2462 55.8665 14.1591 56.3778 14.1591C57.0521 14.1591 57.66 14.3314 58.2017 14.6761C58.7472 15.017 59.179 15.5227 59.4972 16.1932C59.8191 16.8598 59.9801 17.678 59.9801 18.6477C59.9801 19.6061 59.8229 20.4205 59.5085 21.0909C59.1941 21.7614 58.7661 22.2727 58.2244 22.625C57.6828 22.9773 57.0691 23.1534 56.3835 23.1534C55.8835 23.1534 55.4688 23.0701 55.1392 22.9034C54.8097 22.7367 54.5445 22.536 54.3438 22.3011C54.1468 22.0625 53.9934 21.8371 53.8835 21.625H53.7642V23H51.7415ZM53.7585 18.6364C53.7585 19.2008 53.8381 19.6951 53.9972 20.1193C54.16 20.5436 54.393 20.875 54.696 21.1136C55.0028 21.3485 55.3741 21.4659 55.8097 21.4659C56.2642 21.4659 56.6449 21.3447 56.9517 21.1023C57.2585 20.8561 57.4896 20.5208 57.6449 20.0966C57.804 19.6686 57.8835 19.1818 57.8835 18.6364C57.8835 18.0947 57.8059 17.6136 57.6506 17.1932C57.4953 16.7727 57.2642 16.4432 56.9574 16.2045C56.6506 15.9659 56.268 15.8466 55.8097 15.8466C55.3703 15.8466 54.9972 15.9621 54.6903 16.1932C54.3835 16.4242 54.1506 16.7481 53.9915 17.1648C53.8362 17.5814 53.7585 18.072 53.7585 18.6364ZM64.2401 23.1761C63.687 23.1761 63.1889 23.0777 62.7457 22.8807C62.3063 22.6799 61.9579 22.3845 61.7003 21.9943C61.4465 21.6042 61.3196 21.1231 61.3196 20.5511C61.3196 20.0587 61.4105 19.6515 61.5923 19.3295C61.7741 19.0076 62.0223 18.75 62.3366 18.5568C62.651 18.3636 63.0052 18.2178 63.3991 18.1193C63.7969 18.017 64.2079 17.9432 64.6321 17.8977C65.1435 17.8447 65.5582 17.7973 65.8764 17.7557C66.1946 17.7102 66.4257 17.642 66.5696 17.5511C66.7173 17.4564 66.7912 17.3106 66.7912 17.1136V17.0795C66.7912 16.6515 66.6643 16.3201 66.4105 16.0852C66.1567 15.8504 65.7912 15.733 65.3139 15.733C64.8101 15.733 64.4105 15.8428 64.1151 16.0625C63.8234 16.2822 63.6264 16.5417 63.5241 16.8409L61.6037 16.5682C61.7552 16.0379 62.0052 15.5947 62.3537 15.2386C62.7022 14.8788 63.1283 14.6098 63.6321 14.4318C64.1359 14.25 64.6927 14.1591 65.3026 14.1591C65.723 14.1591 66.1416 14.2083 66.5582 14.3068C66.9749 14.4053 67.3556 14.5682 67.7003 14.7955C68.045 15.0189 68.3215 15.3239 68.5298 15.7102C68.742 16.0966 68.848 16.5795 68.848 17.1591V23H66.8707V21.8011H66.8026C66.6776 22.0436 66.5014 22.2708 66.2741 22.483C66.0507 22.6913 65.7685 22.8598 65.4276 22.9886C65.0904 23.1136 64.6946 23.1761 64.2401 23.1761ZM64.7741 21.6648C65.187 21.6648 65.545 21.5833 65.848 21.4205C66.151 21.2538 66.384 21.0341 66.5469 20.7614C66.7135 20.4886 66.7969 20.1913 66.7969 19.8693V18.8409C66.7325 18.8939 66.6226 18.9432 66.4673 18.9886C66.3158 19.0341 66.1454 19.0739 65.956 19.108C65.7666 19.142 65.5791 19.1723 65.3935 19.1989C65.2079 19.2254 65.0469 19.2481 64.9105 19.267C64.6037 19.3087 64.3291 19.3769 64.0866 19.4716C63.8442 19.5663 63.6529 19.6989 63.5128 19.8693C63.3726 20.036 63.3026 20.2519 63.3026 20.517C63.3026 20.8958 63.4408 21.1818 63.7173 21.375C63.9938 21.5682 64.3461 21.6648 64.7741 21.6648ZM70.9162 23V14.2727H72.973V23H70.9162ZM71.9503 13.0341C71.6245 13.0341 71.3442 12.9261 71.1094 12.7102C70.8745 12.4905 70.7571 12.2273 70.7571 11.9205C70.7571 11.6098 70.8745 11.3466 71.1094 11.1307C71.3442 10.911 71.6245 10.8011 71.9503 10.8011C72.2798 10.8011 72.5601 10.911 72.7912 11.1307C73.026 11.3466 73.1435 11.6098 73.1435 11.9205C73.1435 12.2273 73.026 12.4905 72.7912 12.7102C72.5601 12.9261 72.2798 13.0341 71.9503 13.0341ZM79.5682 17.1818C79.5682 15.7614 79.7557 14.4564 80.1307 13.267C80.5095 12.0739 81.072 10.9716 81.8182 9.96023H83.7557C83.4678 10.3352 83.1989 10.7955 82.9489 11.3409C82.6989 11.8826 82.4811 12.4773 82.2955 13.125C82.1136 13.7689 81.9697 14.4375 81.8636 15.1307C81.7614 15.8239 81.7102 16.5076 81.7102 17.1818C81.7102 18.0795 81.7992 18.9886 81.9773 19.9091C82.1591 20.8295 82.4034 21.6837 82.7102 22.4716C83.0208 23.2557 83.3693 23.8977 83.7557 24.3977H81.8182C81.072 23.3864 80.5095 22.286 80.1307 21.0966C79.7557 19.9034 79.5682 18.5985 79.5682 17.1818ZM90.0639 11.3636V23H87.956V13.4148H87.8878L85.1662 15.1534V13.2216L88.0582 11.3636H90.0639ZM97.3196 23.2216C96.384 23.2216 95.581 22.9848 94.9105 22.5114C94.2438 22.0341 93.7306 21.3466 93.3707 20.4489C93.0147 19.5473 92.8366 18.4621 92.8366 17.1932C92.8404 15.9242 93.0204 14.8447 93.3764 13.9545C93.7363 13.0606 94.2495 12.3788 94.9162 11.9091C95.5866 11.4394 96.3878 11.2045 97.3196 11.2045C98.2514 11.2045 99.0526 11.4394 99.723 11.9091C100.393 12.3788 100.907 13.0606 101.263 13.9545C101.623 14.8485 101.803 15.928 101.803 17.1932C101.803 18.4659 101.623 19.553 101.263 20.4545C100.907 21.3523 100.393 22.0379 99.723 22.5114C99.0563 22.9848 98.2552 23.2216 97.3196 23.2216ZM97.3196 21.4432C98.0469 21.4432 98.6207 21.0852 99.0412 20.3693C99.4654 19.6496 99.6776 18.5909 99.6776 17.1932C99.6776 16.2689 99.581 15.4924 99.3878 14.8636C99.1946 14.2348 98.9219 13.7614 98.5696 13.4432C98.2173 13.1212 97.8007 12.9602 97.3196 12.9602C96.5961 12.9602 96.0241 13.3201 95.6037 14.0398C95.1832 14.7557 94.9711 15.8068 94.9673 17.1932C94.9635 18.1212 95.0563 18.9015 95.2457 19.5341C95.4389 20.1667 95.7116 20.6439 96.0639 20.9659C96.4162 21.2841 96.8348 21.4432 97.3196 21.4432ZM109.912 20.8182V20.2045C109.912 19.7538 110.007 19.339 110.196 18.9602C110.389 18.5814 110.67 18.2765 111.037 18.0455C111.404 17.8144 111.849 17.6989 112.372 17.6989C112.91 17.6989 113.361 17.8144 113.724 18.0455C114.088 18.2727 114.363 18.5758 114.548 18.9545C114.738 19.3333 114.832 19.75 114.832 20.2045V20.8182C114.832 21.2689 114.738 21.6837 114.548 22.0625C114.359 22.4413 114.08 22.7462 113.713 22.9773C113.349 23.2083 112.902 23.3239 112.372 23.3239C111.842 23.3239 111.393 23.2083 111.026 22.9773C110.658 22.7462 110.38 22.4413 110.19 22.0625C110.005 21.6837 109.912 21.2689 109.912 20.8182ZM111.395 20.2045V20.8182C111.395 21.1174 111.467 21.392 111.611 21.642C111.755 21.892 112.009 22.017 112.372 22.017C112.74 22.017 112.991 21.8939 113.128 21.6477C113.268 21.3977 113.338 21.1212 113.338 20.8182V20.2045C113.338 19.9015 113.272 19.625 113.139 19.375C113.007 19.1212 112.751 18.9943 112.372 18.9943C112.016 18.9943 111.764 19.1212 111.616 19.375C111.469 19.625 111.395 19.9015 111.395 20.2045ZM103.997 14.1591V13.5455C103.997 13.0909 104.094 12.6742 104.287 12.2955C104.48 11.9167 104.76 11.6136 105.128 11.3864C105.495 11.1553 105.94 11.0398 106.463 11.0398C106.997 11.0398 107.446 11.1553 107.81 11.3864C108.177 11.6136 108.454 11.9167 108.639 12.2955C108.825 12.6742 108.918 13.0909 108.918 13.5455V14.1591C108.918 14.6136 108.823 15.0303 108.634 15.4091C108.448 15.7841 108.171 16.0852 107.804 16.3125C107.437 16.5398 106.99 16.6534 106.463 16.6534C105.929 16.6534 105.478 16.5398 105.111 16.3125C104.747 16.0852 104.471 15.7822 104.281 15.4034C104.092 15.0246 103.997 14.6098 103.997 14.1591ZM105.491 13.5455V14.1591C105.491 14.4621 105.562 14.7386 105.702 14.9886C105.846 15.2348 106.099 15.358 106.463 15.358C106.827 15.358 107.077 15.2348 107.213 14.9886C107.353 14.7386 107.423 14.4621 107.423 14.1591V13.5455C107.423 13.2424 107.357 12.9659 107.224 12.7159C107.092 12.4621 106.838 12.3352 106.463 12.3352C106.103 12.3352 105.851 12.4621 105.707 12.7159C105.563 12.9697 105.491 13.2462 105.491 13.5455ZM104.645 23L112.645 11.3636H114.065L106.065 23H104.645ZM120.884 17.1818C120.884 18.5985 120.694 19.9034 120.315 21.0966C119.94 22.286 119.38 23.3864 118.634 24.3977H116.696C116.988 24.0227 117.257 23.5644 117.503 23.0227C117.753 22.4811 117.969 21.8864 118.151 21.2386C118.336 20.5909 118.48 19.9205 118.582 19.2273C118.688 18.5341 118.741 17.8523 118.741 17.1818C118.741 16.2841 118.651 15.375 118.469 14.4545C118.291 13.5341 118.046 12.6799 117.736 11.892C117.429 11.1042 117.082 10.4602 116.696 9.96023H118.634C119.38 10.9716 119.94 12.0739 120.315 13.267C120.694 14.4564 120.884 15.7614 120.884 17.1818Z" fill="#008E9B"/>
<path d="M375.148 155V143.364H379.602C380.443 143.364 381.142 143.496 381.699 143.761C382.259 144.023 382.678 144.381 382.955 144.835C383.235 145.29 383.375 145.805 383.375 146.381C383.375 146.854 383.284 147.259 383.102 147.597C382.92 147.93 382.676 148.201 382.369 148.409C382.062 148.617 381.72 148.767 381.341 148.858V148.972C381.754 148.994 382.15 149.121 382.528 149.352C382.911 149.58 383.223 149.902 383.466 150.318C383.708 150.735 383.83 151.239 383.83 151.83C383.83 152.432 383.684 152.973 383.392 153.455C383.1 153.932 382.661 154.309 382.074 154.585C381.487 154.862 380.748 155 379.858 155H375.148ZM377.256 153.239H379.523C380.288 153.239 380.839 153.093 381.176 152.801C381.517 152.506 381.688 152.127 381.688 151.665C381.688 151.32 381.602 151.009 381.432 150.733C381.261 150.453 381.019 150.233 380.705 150.074C380.39 149.911 380.015 149.83 379.58 149.83H377.256V153.239ZM377.256 148.312H379.341C379.705 148.312 380.032 148.246 380.324 148.114C380.616 147.977 380.845 147.786 381.011 147.54C381.182 147.29 381.267 146.994 381.267 146.653C381.267 146.203 381.108 145.831 380.79 145.54C380.475 145.248 380.008 145.102 379.386 145.102H377.256V148.312ZM389.436 155.17C388.561 155.17 387.805 154.989 387.169 154.625C386.536 154.258 386.05 153.739 385.709 153.068C385.368 152.394 385.197 151.6 385.197 150.688C385.197 149.79 385.368 149.002 385.709 148.324C386.054 147.642 386.535 147.112 387.152 146.733C387.769 146.35 388.495 146.159 389.328 146.159C389.866 146.159 390.374 146.246 390.851 146.42C391.332 146.591 391.756 146.856 392.124 147.216C392.495 147.576 392.786 148.034 392.999 148.591C393.211 149.144 393.317 149.803 393.317 150.568V151.199H386.163V149.812H391.345C391.341 149.419 391.256 149.068 391.089 148.761C390.923 148.451 390.69 148.206 390.391 148.028C390.095 147.85 389.75 147.761 389.357 147.761C388.936 147.761 388.567 147.864 388.249 148.068C387.93 148.269 387.682 148.534 387.504 148.864C387.33 149.189 387.241 149.547 387.237 149.938V151.148C387.237 151.655 387.33 152.091 387.516 152.455C387.701 152.814 387.961 153.091 388.294 153.284C388.627 153.473 389.018 153.568 389.464 153.568C389.764 153.568 390.035 153.527 390.277 153.443C390.519 153.356 390.73 153.229 390.908 153.062C391.086 152.896 391.22 152.689 391.311 152.443L393.232 152.659C393.11 153.167 392.879 153.61 392.538 153.989C392.201 154.364 391.769 154.655 391.243 154.864C390.716 155.068 390.114 155.17 389.436 155.17ZM397.114 149.886V155H395.057V146.273H397.023V147.756H397.125C397.326 147.267 397.646 146.879 398.085 146.591C398.528 146.303 399.076 146.159 399.727 146.159C400.33 146.159 400.854 146.288 401.301 146.545C401.752 146.803 402.1 147.176 402.347 147.665C402.597 148.153 402.72 148.746 402.716 149.443V155H400.659V149.761C400.659 149.178 400.508 148.722 400.205 148.392C399.905 148.062 399.491 147.898 398.96 147.898C398.6 147.898 398.28 147.977 398 148.136C397.723 148.292 397.506 148.517 397.347 148.812C397.191 149.108 397.114 149.466 397.114 149.886ZM408.602 158.455C407.864 158.455 407.229 158.354 406.699 158.153C406.169 157.956 405.742 157.691 405.42 157.358C405.098 157.025 404.875 156.655 404.75 156.25L406.602 155.801C406.686 155.972 406.807 156.14 406.966 156.307C407.125 156.477 407.339 156.617 407.608 156.727C407.881 156.841 408.223 156.898 408.636 156.898C409.22 156.898 409.703 156.756 410.085 156.472C410.468 156.191 410.659 155.729 410.659 155.085V153.432H410.557C410.451 153.644 410.295 153.862 410.091 154.085C409.89 154.309 409.623 154.496 409.29 154.648C408.96 154.799 408.545 154.875 408.045 154.875C407.375 154.875 406.767 154.718 406.222 154.403C405.68 154.085 405.248 153.612 404.926 152.983C404.608 152.35 404.449 151.559 404.449 150.608C404.449 149.65 404.608 148.841 404.926 148.182C405.248 147.519 405.682 147.017 406.227 146.676C406.773 146.331 407.381 146.159 408.051 146.159C408.563 146.159 408.983 146.246 409.312 146.42C409.646 146.591 409.911 146.797 410.108 147.04C410.305 147.278 410.455 147.504 410.557 147.716H410.67V146.273H412.699V155.142C412.699 155.888 412.521 156.506 412.165 156.994C411.809 157.483 411.322 157.848 410.705 158.091C410.087 158.333 409.386 158.455 408.602 158.455ZM408.619 153.261C409.055 153.261 409.426 153.155 409.733 152.943C410.04 152.731 410.273 152.426 410.432 152.028C410.591 151.631 410.67 151.153 410.67 150.597C410.67 150.047 410.591 149.566 410.432 149.153C410.277 148.741 410.045 148.42 409.739 148.193C409.436 147.962 409.063 147.847 408.619 147.847C408.161 147.847 407.778 147.966 407.472 148.205C407.165 148.443 406.934 148.771 406.778 149.188C406.623 149.6 406.545 150.07 406.545 150.597C406.545 151.131 406.623 151.598 406.778 152C406.938 152.398 407.17 152.708 407.477 152.932C407.788 153.152 408.169 153.261 408.619 153.261ZM417.318 155.176C416.765 155.176 416.267 155.078 415.824 154.881C415.384 154.68 415.036 154.384 414.778 153.994C414.525 153.604 414.398 153.123 414.398 152.551C414.398 152.059 414.489 151.652 414.67 151.33C414.852 151.008 415.1 150.75 415.415 150.557C415.729 150.364 416.083 150.218 416.477 150.119C416.875 150.017 417.286 149.943 417.71 149.898C418.222 149.845 418.636 149.797 418.955 149.756C419.273 149.71 419.504 149.642 419.648 149.551C419.795 149.456 419.869 149.311 419.869 149.114V149.08C419.869 148.652 419.742 148.32 419.489 148.085C419.235 147.85 418.869 147.733 418.392 147.733C417.888 147.733 417.489 147.843 417.193 148.062C416.902 148.282 416.705 148.542 416.602 148.841L414.682 148.568C414.833 148.038 415.083 147.595 415.432 147.239C415.78 146.879 416.206 146.61 416.71 146.432C417.214 146.25 417.771 146.159 418.381 146.159C418.801 146.159 419.22 146.208 419.636 146.307C420.053 146.405 420.434 146.568 420.778 146.795C421.123 147.019 421.4 147.324 421.608 147.71C421.82 148.097 421.926 148.58 421.926 149.159V155H419.949V153.801H419.881C419.756 154.044 419.58 154.271 419.352 154.483C419.129 154.691 418.847 154.86 418.506 154.989C418.169 155.114 417.773 155.176 417.318 155.176ZM417.852 153.665C418.265 153.665 418.623 153.583 418.926 153.42C419.229 153.254 419.462 153.034 419.625 152.761C419.792 152.489 419.875 152.191 419.875 151.869V150.841C419.811 150.894 419.701 150.943 419.545 150.989C419.394 151.034 419.223 151.074 419.034 151.108C418.845 151.142 418.657 151.172 418.472 151.199C418.286 151.225 418.125 151.248 417.989 151.267C417.682 151.309 417.407 151.377 417.165 151.472C416.922 151.566 416.731 151.699 416.591 151.869C416.451 152.036 416.381 152.252 416.381 152.517C416.381 152.896 416.519 153.182 416.795 153.375C417.072 153.568 417.424 153.665 417.852 153.665ZM426.051 143.364V155H423.994V143.364H426.051ZM433.729 151.33V146.273H435.786V155H433.791V153.449H433.7C433.503 153.937 433.179 154.337 432.729 154.648C432.282 154.958 431.731 155.114 431.075 155.114C430.503 155.114 429.998 154.987 429.558 154.733C429.123 154.475 428.782 154.102 428.536 153.614C428.289 153.121 428.166 152.527 428.166 151.83V146.273H430.223V151.511C430.223 152.064 430.375 152.504 430.678 152.83C430.981 153.155 431.378 153.318 431.871 153.318C432.174 153.318 432.467 153.244 432.751 153.097C433.036 152.949 433.268 152.729 433.45 152.438C433.636 152.142 433.729 151.773 433.729 151.33ZM437.901 155V146.273H439.895V147.727H439.986C440.145 147.223 440.418 146.835 440.804 146.562C441.194 146.286 441.639 146.148 442.139 146.148C442.253 146.148 442.38 146.153 442.52 146.165C442.664 146.172 442.783 146.186 442.878 146.205V148.097C442.791 148.066 442.652 148.04 442.463 148.017C442.277 147.991 442.098 147.977 441.923 147.977C441.548 147.977 441.211 148.059 440.912 148.222C440.616 148.381 440.384 148.602 440.213 148.886C440.043 149.17 439.957 149.498 439.957 149.869V155H437.901ZM449.807 151.33V146.273H451.864V155H449.869V153.449H449.778C449.581 153.937 449.258 154.337 448.807 154.648C448.36 154.958 447.809 155.114 447.153 155.114C446.581 155.114 446.076 154.987 445.636 154.733C445.201 154.475 444.86 154.102 444.614 153.614C444.367 153.121 444.244 152.527 444.244 151.83V146.273H446.301V151.511C446.301 152.064 446.453 152.504 446.756 152.83C447.059 153.155 447.456 153.318 447.949 153.318C448.252 153.318 448.545 153.244 448.83 153.097C449.114 152.949 449.347 152.729 449.528 152.438C449.714 152.142 449.807 151.773 449.807 151.33ZM458.459 149.182C458.459 147.761 458.646 146.456 459.021 145.267C459.4 144.074 459.963 142.972 460.709 141.96H462.646C462.358 142.335 462.089 142.795 461.839 143.341C461.589 143.883 461.372 144.477 461.186 145.125C461.004 145.769 460.86 146.437 460.754 147.131C460.652 147.824 460.601 148.508 460.601 149.182C460.601 150.08 460.69 150.989 460.868 151.909C461.05 152.83 461.294 153.684 461.601 154.472C461.911 155.256 462.26 155.898 462.646 156.398H460.709C459.963 155.386 459.4 154.286 459.021 153.097C458.646 151.903 458.459 150.598 458.459 149.182ZM464.222 155V153.477L468.261 149.517C468.648 149.127 468.97 148.78 469.227 148.477C469.485 148.174 469.678 147.881 469.807 147.597C469.936 147.312 470 147.009 470 146.688C470 146.32 469.917 146.006 469.75 145.744C469.583 145.479 469.354 145.275 469.062 145.131C468.771 144.987 468.439 144.915 468.068 144.915C467.686 144.915 467.35 144.994 467.062 145.153C466.775 145.309 466.551 145.53 466.392 145.818C466.237 146.106 466.159 146.449 466.159 146.847H464.153C464.153 146.108 464.322 145.466 464.659 144.92C464.996 144.375 465.46 143.953 466.051 143.653C466.646 143.354 467.328 143.205 468.097 143.205C468.877 143.205 469.563 143.35 470.153 143.642C470.744 143.934 471.203 144.333 471.528 144.841C471.858 145.348 472.023 145.928 472.023 146.58C472.023 147.015 471.939 147.443 471.773 147.864C471.606 148.284 471.313 148.75 470.892 149.261C470.475 149.773 469.89 150.392 469.136 151.119L467.131 153.159V153.239H472.199V155H464.222ZM478.46 155.222C477.525 155.222 476.722 154.985 476.051 154.511C475.384 154.034 474.871 153.347 474.511 152.449C474.155 151.547 473.977 150.462 473.977 149.193C473.981 147.924 474.161 146.845 474.517 145.955C474.877 145.061 475.39 144.379 476.057 143.909C476.727 143.439 477.528 143.205 478.46 143.205C479.392 143.205 480.193 143.439 480.864 143.909C481.534 144.379 482.047 145.061 482.403 145.955C482.763 146.848 482.943 147.928 482.943 149.193C482.943 150.466 482.763 151.553 482.403 152.455C482.047 153.352 481.534 154.038 480.864 154.511C480.197 154.985 479.396 155.222 478.46 155.222ZM478.46 153.443C479.188 153.443 479.761 153.085 480.182 152.369C480.606 151.65 480.818 150.591 480.818 149.193C480.818 148.269 480.722 147.492 480.528 146.864C480.335 146.235 480.063 145.761 479.71 145.443C479.358 145.121 478.941 144.96 478.46 144.96C477.737 144.96 477.165 145.32 476.744 146.04C476.324 146.756 476.112 147.807 476.108 149.193C476.104 150.121 476.197 150.902 476.386 151.534C476.58 152.167 476.852 152.644 477.205 152.966C477.557 153.284 477.975 153.443 478.46 153.443ZM491.053 152.818V152.205C491.053 151.754 491.147 151.339 491.337 150.96C491.53 150.581 491.81 150.277 492.178 150.045C492.545 149.814 492.99 149.699 493.513 149.699C494.051 149.699 494.501 149.814 494.865 150.045C495.229 150.273 495.503 150.576 495.689 150.955C495.878 151.333 495.973 151.75 495.973 152.205V152.818C495.973 153.269 495.878 153.684 495.689 154.062C495.5 154.441 495.221 154.746 494.854 154.977C494.49 155.208 494.043 155.324 493.513 155.324C492.982 155.324 492.534 155.208 492.166 154.977C491.799 154.746 491.52 154.441 491.331 154.062C491.145 153.684 491.053 153.269 491.053 152.818ZM492.536 152.205V152.818C492.536 153.117 492.607 153.392 492.751 153.642C492.895 153.892 493.149 154.017 493.513 154.017C493.88 154.017 494.132 153.894 494.268 153.648C494.409 153.398 494.479 153.121 494.479 152.818V152.205C494.479 151.902 494.412 151.625 494.28 151.375C494.147 151.121 493.892 150.994 493.513 150.994C493.157 150.994 492.905 151.121 492.757 151.375C492.609 151.625 492.536 151.902 492.536 152.205ZM485.138 146.159V145.545C485.138 145.091 485.234 144.674 485.428 144.295C485.621 143.917 485.901 143.614 486.268 143.386C486.636 143.155 487.081 143.04 487.604 143.04C488.138 143.04 488.587 143.155 488.95 143.386C489.318 143.614 489.594 143.917 489.78 144.295C489.965 144.674 490.058 145.091 490.058 145.545V146.159C490.058 146.614 489.964 147.03 489.774 147.409C489.589 147.784 489.312 148.085 488.945 148.312C488.577 148.54 488.13 148.653 487.604 148.653C487.07 148.653 486.619 148.54 486.251 148.312C485.888 148.085 485.611 147.782 485.422 147.403C485.232 147.025 485.138 146.61 485.138 146.159ZM486.632 145.545V146.159C486.632 146.462 486.702 146.739 486.842 146.989C486.986 147.235 487.24 147.358 487.604 147.358C487.967 147.358 488.217 147.235 488.354 146.989C488.494 146.739 488.564 146.462 488.564 146.159V145.545C488.564 145.242 488.498 144.966 488.365 144.716C488.232 144.462 487.979 144.335 487.604 144.335C487.244 144.335 486.992 144.462 486.848 144.716C486.704 144.97 486.632 145.246 486.632 145.545ZM485.786 155L493.786 143.364H495.206L487.206 155H485.786ZM502.024 149.182C502.024 150.598 501.835 151.903 501.456 153.097C501.081 154.286 500.52 155.386 499.774 156.398H497.837C498.128 156.023 498.397 155.564 498.643 155.023C498.893 154.481 499.109 153.886 499.291 153.239C499.477 152.591 499.621 151.92 499.723 151.227C499.829 150.534 499.882 149.852 499.882 149.182C499.882 148.284 499.791 147.375 499.609 146.455C499.431 145.534 499.187 144.68 498.876 143.892C498.57 143.104 498.223 142.46 497.837 141.96H499.774C500.52 142.972 501.081 144.074 501.456 145.267C501.835 146.456 502.024 147.761 502.024 149.182Z" fill="#845EC2"/>
<path d="M43.1477 271V259.364H45.2557V264.71H45.3977L49.9375 259.364H52.5114L48.0114 264.585L52.5511 271H50.017L46.5455 266.011L45.2557 267.534V271H43.1477ZM57.0511 271.17C56.1989 271.17 55.4602 270.983 54.8352 270.608C54.2102 270.233 53.7254 269.708 53.3807 269.034C53.0398 268.36 52.8693 267.572 52.8693 266.67C52.8693 265.769 53.0398 264.979 53.3807 264.301C53.7254 263.623 54.2102 263.097 54.8352 262.722C55.4602 262.347 56.1989 262.159 57.0511 262.159C57.9034 262.159 58.642 262.347 59.267 262.722C59.892 263.097 60.375 263.623 60.7159 264.301C61.0606 264.979 61.233 265.769 61.233 266.67C61.233 267.572 61.0606 268.36 60.7159 269.034C60.375 269.708 59.892 270.233 59.267 270.608C58.642 270.983 57.9034 271.17 57.0511 271.17ZM57.0625 269.523C57.5246 269.523 57.911 269.396 58.2216 269.142C58.5322 268.884 58.7633 268.54 58.9148 268.108C59.0701 267.676 59.1477 267.195 59.1477 266.665C59.1477 266.131 59.0701 265.648 58.9148 265.216C58.7633 264.78 58.5322 264.434 58.2216 264.176C57.911 263.919 57.5246 263.79 57.0625 263.79C56.589 263.79 56.1951 263.919 55.8807 264.176C55.5701 264.434 55.3371 264.78 55.1818 265.216C55.0303 265.648 54.9545 266.131 54.9545 266.665C54.9545 267.195 55.0303 267.676 55.1818 268.108C55.3371 268.54 55.5701 268.884 55.8807 269.142C56.1951 269.396 56.589 269.523 57.0625 269.523ZM65.0355 259.364V271H62.9787V259.364H65.0355ZM69.0256 268.261L69.0199 265.778H69.3494L72.4858 262.273H74.8892L71.0312 266.568H70.6051L69.0256 268.261ZM67.1506 271V259.364H69.2074V271H67.1506ZM72.6278 271L69.7869 267.028L71.1733 265.58L75.0881 271H72.6278ZM78.7713 271.176C78.2183 271.176 77.7202 271.078 77.277 270.881C76.8376 270.68 76.4891 270.384 76.2315 269.994C75.9777 269.604 75.8509 269.123 75.8509 268.551C75.8509 268.059 75.9418 267.652 76.1236 267.33C76.3054 267.008 76.5535 266.75 76.8679 266.557C77.1823 266.364 77.5365 266.218 77.9304 266.119C78.3281 266.017 78.7391 265.943 79.1634 265.898C79.6747 265.845 80.0895 265.797 80.4077 265.756C80.7259 265.71 80.9569 265.642 81.1009 265.551C81.2486 265.456 81.3224 265.311 81.3224 265.114V265.08C81.3224 264.652 81.1955 264.32 80.9418 264.085C80.688 263.85 80.3224 263.733 79.8452 263.733C79.3414 263.733 78.9418 263.843 78.6463 264.062C78.3546 264.282 78.1577 264.542 78.0554 264.841L76.1349 264.568C76.2865 264.038 76.5365 263.595 76.8849 263.239C77.2334 262.879 77.6596 262.61 78.1634 262.432C78.6671 262.25 79.224 262.159 79.8338 262.159C80.2543 262.159 80.6728 262.208 81.0895 262.307C81.5062 262.405 81.8868 262.568 82.2315 262.795C82.5762 263.019 82.8527 263.324 83.0611 263.71C83.2732 264.097 83.3793 264.58 83.3793 265.159V271H81.402V269.801H81.3338C81.2088 270.044 81.0327 270.271 80.8054 270.483C80.5819 270.691 80.2997 270.86 79.9588 270.989C79.6217 271.114 79.2259 271.176 78.7713 271.176ZM79.3054 269.665C79.7183 269.665 80.0762 269.583 80.3793 269.42C80.6823 269.254 80.9152 269.034 81.0781 268.761C81.2448 268.489 81.3281 268.191 81.3281 267.869V266.841C81.2637 266.894 81.1539 266.943 80.9986 266.989C80.8471 267.034 80.6766 267.074 80.4872 267.108C80.2978 267.142 80.1103 267.172 79.9247 267.199C79.7391 267.225 79.5781 267.248 79.4418 267.267C79.1349 267.309 78.8603 267.377 78.6179 267.472C78.3755 267.566 78.1842 267.699 78.044 267.869C77.9039 268.036 77.8338 268.252 77.8338 268.517C77.8338 268.896 77.9721 269.182 78.2486 269.375C78.5251 269.568 78.8774 269.665 79.3054 269.665ZM89.8054 262.273V263.864H84.7884V262.273H89.8054ZM86.027 260.182H88.0838V268.375C88.0838 268.652 88.1255 268.864 88.2088 269.011C88.2959 269.155 88.4096 269.254 88.5497 269.307C88.6899 269.36 88.8452 269.386 89.0156 269.386C89.1444 269.386 89.2618 269.377 89.3679 269.358C89.4777 269.339 89.5611 269.322 89.6179 269.307L89.9645 270.915C89.8546 270.953 89.6974 270.994 89.4929 271.04C89.2921 271.085 89.0459 271.112 88.7543 271.119C88.2391 271.134 87.7751 271.057 87.3622 270.886C86.9493 270.712 86.6217 270.443 86.3793 270.08C86.1406 269.716 86.0232 269.261 86.027 268.716V260.182ZM94.0369 271.176C93.4839 271.176 92.9858 271.078 92.5426 270.881C92.1032 270.68 91.7547 270.384 91.4972 269.994C91.2434 269.604 91.1165 269.123 91.1165 268.551C91.1165 268.059 91.2074 267.652 91.3892 267.33C91.571 267.008 91.8191 266.75 92.1335 266.557C92.4479 266.364 92.8021 266.218 93.196 266.119C93.5938 266.017 94.0047 265.943 94.429 265.898C94.9403 265.845 95.3551 265.797 95.6733 265.756C95.9915 265.71 96.2225 265.642 96.3665 265.551C96.5142 265.456 96.5881 265.311 96.5881 265.114V265.08C96.5881 264.652 96.4612 264.32 96.2074 264.085C95.9536 263.85 95.5881 263.733 95.1108 263.733C94.607 263.733 94.2074 263.843 93.9119 264.062C93.6203 264.282 93.4233 264.542 93.321 264.841L91.4006 264.568C91.5521 264.038 91.8021 263.595 92.1506 263.239C92.4991 262.879 92.9252 262.61 93.429 262.432C93.9328 262.25 94.4896 262.159 95.0994 262.159C95.5199 262.159 95.9384 262.208 96.3551 262.307C96.7718 262.405 97.1525 262.568 97.4972 262.795C97.8419 263.019 98.1184 263.324 98.3267 263.71C98.5388 264.097 98.6449 264.58 98.6449 265.159V271H96.6676V269.801H96.5994C96.4744 270.044 96.2983 270.271 96.071 270.483C95.8475 270.691 95.5653 270.86 95.2244 270.989C94.8873 271.114 94.4915 271.176 94.0369 271.176ZM94.571 269.665C94.9839 269.665 95.3419 269.583 95.6449 269.42C95.9479 269.254 96.1809 269.034 96.3438 268.761C96.5104 268.489 96.5938 268.191 96.5938 267.869V266.841C96.5294 266.894 96.4195 266.943 96.2642 266.989C96.1127 267.034 95.9422 267.074 95.7528 267.108C95.5634 267.142 95.3759 267.172 95.1903 267.199C95.0047 267.225 94.8438 267.248 94.7074 267.267C94.4006 267.309 94.1259 267.377 93.8835 267.472C93.6411 267.566 93.4498 267.699 93.3097 267.869C93.1695 268.036 93.0994 268.252 93.0994 268.517C93.0994 268.896 93.2377 269.182 93.5142 269.375C93.7907 269.568 94.143 269.665 94.571 269.665ZM105.193 265.182C105.193 263.761 105.381 262.456 105.756 261.267C106.134 260.074 106.697 258.972 107.443 257.96H109.381C109.093 258.335 108.824 258.795 108.574 259.341C108.324 259.883 108.106 260.477 107.92 261.125C107.739 261.769 107.595 262.437 107.489 263.131C107.386 263.824 107.335 264.508 107.335 265.182C107.335 266.08 107.424 266.989 107.602 267.909C107.784 268.83 108.028 269.684 108.335 270.472C108.646 271.256 108.994 271.898 109.381 272.398H107.443C106.697 271.386 106.134 270.286 105.756 269.097C105.381 267.903 105.193 266.598 105.193 265.182ZM110.956 271V269.477L114.996 265.517C115.382 265.127 115.704 264.78 115.962 264.477C116.219 264.174 116.412 263.881 116.541 263.597C116.67 263.312 116.734 263.009 116.734 262.688C116.734 262.32 116.651 262.006 116.484 261.744C116.318 261.479 116.089 261.275 115.797 261.131C115.505 260.987 115.174 260.915 114.803 260.915C114.42 260.915 114.085 260.994 113.797 261.153C113.509 261.309 113.286 261.53 113.126 261.818C112.971 262.106 112.893 262.449 112.893 262.847H110.888C110.888 262.108 111.056 261.466 111.393 260.92C111.731 260.375 112.195 259.953 112.786 259.653C113.38 259.354 114.062 259.205 114.831 259.205C115.611 259.205 116.297 259.35 116.888 259.642C117.479 259.934 117.937 260.333 118.263 260.841C118.592 261.348 118.757 261.928 118.757 262.58C118.757 263.015 118.674 263.443 118.507 263.864C118.34 264.284 118.047 264.75 117.626 265.261C117.21 265.773 116.625 266.392 115.871 267.119L113.865 269.159V269.239H118.933V271H110.956ZM125.195 271.222C124.259 271.222 123.456 270.985 122.786 270.511C122.119 270.034 121.606 269.347 121.246 268.449C120.89 267.547 120.712 266.462 120.712 265.193C120.715 263.924 120.895 262.845 121.251 261.955C121.611 261.061 122.125 260.379 122.791 259.909C123.462 259.439 124.263 259.205 125.195 259.205C126.126 259.205 126.928 259.439 127.598 259.909C128.268 260.379 128.782 261.061 129.138 261.955C129.498 262.848 129.678 263.928 129.678 265.193C129.678 266.466 129.498 267.553 129.138 268.455C128.782 269.352 128.268 270.038 127.598 270.511C126.931 270.985 126.13 271.222 125.195 271.222ZM125.195 269.443C125.922 269.443 126.496 269.085 126.916 268.369C127.34 267.65 127.553 266.591 127.553 265.193C127.553 264.269 127.456 263.492 127.263 262.864C127.07 262.235 126.797 261.761 126.445 261.443C126.092 261.121 125.676 260.96 125.195 260.96C124.471 260.96 123.899 261.32 123.479 262.04C123.058 262.756 122.846 263.807 122.842 265.193C122.839 266.121 122.931 266.902 123.121 267.534C123.314 268.167 123.587 268.644 123.939 268.966C124.291 269.284 124.71 269.443 125.195 269.443ZM137.787 268.818V268.205C137.787 267.754 137.882 267.339 138.071 266.96C138.264 266.581 138.545 266.277 138.912 266.045C139.279 265.814 139.724 265.699 140.247 265.699C140.785 265.699 141.236 265.814 141.599 266.045C141.963 266.273 142.238 266.576 142.423 266.955C142.613 267.333 142.707 267.75 142.707 268.205V268.818C142.707 269.269 142.613 269.684 142.423 270.062C142.234 270.441 141.955 270.746 141.588 270.977C141.224 271.208 140.777 271.324 140.247 271.324C139.717 271.324 139.268 271.208 138.901 270.977C138.533 270.746 138.255 270.441 138.065 270.062C137.88 269.684 137.787 269.269 137.787 268.818ZM139.27 268.205V268.818C139.27 269.117 139.342 269.392 139.486 269.642C139.63 269.892 139.884 270.017 140.247 270.017C140.615 270.017 140.866 269.894 141.003 269.648C141.143 269.398 141.213 269.121 141.213 268.818V268.205C141.213 267.902 141.147 267.625 141.014 267.375C140.882 267.121 140.626 266.994 140.247 266.994C139.891 266.994 139.639 267.121 139.491 267.375C139.344 267.625 139.27 267.902 139.27 268.205ZM131.872 262.159V261.545C131.872 261.091 131.969 260.674 132.162 260.295C132.355 259.917 132.635 259.614 133.003 259.386C133.37 259.155 133.815 259.04 134.338 259.04C134.872 259.04 135.321 259.155 135.685 259.386C136.052 259.614 136.329 259.917 136.514 260.295C136.7 260.674 136.793 261.091 136.793 261.545V262.159C136.793 262.614 136.698 263.03 136.509 263.409C136.323 263.784 136.046 264.085 135.679 264.312C135.312 264.54 134.865 264.653 134.338 264.653C133.804 264.653 133.353 264.54 132.986 264.312C132.622 264.085 132.346 263.782 132.156 263.403C131.967 263.025 131.872 262.61 131.872 262.159ZM133.366 261.545V262.159C133.366 262.462 133.437 262.739 133.577 262.989C133.721 263.235 133.974 263.358 134.338 263.358C134.702 263.358 134.952 263.235 135.088 262.989C135.228 262.739 135.298 262.462 135.298 262.159V261.545C135.298 261.242 135.232 260.966 135.099 260.716C134.967 260.462 134.713 260.335 134.338 260.335C133.978 260.335 133.726 260.462 133.582 260.716C133.438 260.97 133.366 261.246 133.366 261.545ZM132.52 271L140.52 259.364H141.94L133.94 271H132.52ZM148.759 265.182C148.759 266.598 148.569 267.903 148.19 269.097C147.815 270.286 147.255 271.386 146.509 272.398H144.571C144.863 272.023 145.132 271.564 145.378 271.023C145.628 270.481 145.844 269.886 146.026 269.239C146.211 268.591 146.355 267.92 146.457 267.227C146.563 266.534 146.616 265.852 146.616 265.182C146.616 264.284 146.526 263.375 146.344 262.455C146.166 261.534 145.921 260.68 145.611 259.892C145.304 259.104 144.957 258.46 144.571 257.96H146.509C147.255 258.972 147.815 260.074 148.19 261.267C148.569 262.456 148.759 263.761 148.759 265.182Z" fill="#0081CF"/>
<path d="M11.108 129.29H8.98295C8.92235 128.941 8.81061 128.633 8.64773 128.364C8.48485 128.091 8.2822 127.86 8.03977 127.67C7.79735 127.481 7.52083 127.339 7.21023 127.244C6.90341 127.146 6.57197 127.097 6.21591 127.097C5.58333 127.097 5.02273 127.256 4.53409 127.574C4.04545 127.888 3.66288 128.35 3.38636 128.96C3.10985 129.566 2.97159 130.307 2.97159 131.182C2.97159 132.072 3.10985 132.822 3.38636 133.432C3.66667 134.038 4.04924 134.496 4.53409 134.807C5.02273 135.114 5.58144 135.267 6.21023 135.267C6.55871 135.267 6.88447 135.222 7.1875 135.131C7.49432 135.036 7.76894 134.898 8.01136 134.716C8.25758 134.534 8.46402 134.311 8.63068 134.045C8.80114 133.78 8.91856 133.477 8.98295 133.136L11.108 133.148C11.0284 133.701 10.8561 134.22 10.5909 134.705C10.3295 135.189 9.98674 135.617 9.5625 135.989C9.13826 136.356 8.64205 136.644 8.07386 136.852C7.50568 137.057 6.875 137.159 6.18182 137.159C5.15909 137.159 4.24621 136.922 3.44318 136.449C2.64015 135.975 2.00758 135.292 1.54545 134.398C1.08333 133.504 0.852273 132.432 0.852273 131.182C0.852273 129.928 1.08523 128.856 1.55114 127.966C2.01705 127.072 2.65152 126.388 3.45455 125.915C4.25758 125.441 5.16667 125.205 6.18182 125.205C6.82955 125.205 7.43182 125.295 7.98864 125.477C8.54545 125.659 9.04167 125.926 9.47727 126.278C9.91288 126.627 10.2708 127.055 10.5511 127.562C10.8352 128.066 11.0208 128.642 11.108 129.29ZM15.0043 131.886V137H12.9474V125.364H14.9588V129.756H15.0611C15.2656 129.263 15.5819 128.875 16.0099 128.591C16.4418 128.303 16.991 128.159 17.6577 128.159C18.2637 128.159 18.7921 128.286 19.2429 128.54C19.6937 128.794 20.0421 129.165 20.2884 129.653C20.5384 130.142 20.6634 130.739 20.6634 131.443V137H18.6065V131.761C18.6065 131.174 18.455 130.718 18.152 130.392C17.8527 130.062 17.4323 129.898 16.8906 129.898C16.527 129.898 16.2012 129.977 15.9134 130.136C15.6293 130.292 15.4058 130.517 15.2429 130.812C15.0838 131.108 15.0043 131.466 15.0043 131.886ZM26.6236 137.17C25.7486 137.17 24.9929 136.989 24.3565 136.625C23.724 136.258 23.2372 135.739 22.8963 135.068C22.5554 134.394 22.3849 133.6 22.3849 132.688C22.3849 131.79 22.5554 131.002 22.8963 130.324C23.241 129.642 23.7221 129.112 24.3395 128.733C24.9569 128.35 25.6823 128.159 26.5156 128.159C27.0535 128.159 27.5611 128.246 28.0384 128.42C28.5194 128.591 28.9437 128.856 29.3111 129.216C29.6823 129.576 29.974 130.034 30.1861 130.591C30.3982 131.144 30.5043 131.803 30.5043 132.568V133.199H23.3509V131.812H28.5327C28.5289 131.419 28.4437 131.068 28.277 130.761C28.1103 130.451 27.8774 130.206 27.5781 130.028C27.2827 129.85 26.938 129.761 26.544 129.761C26.1236 129.761 25.7543 129.864 25.4361 130.068C25.1179 130.269 24.8698 130.534 24.6918 130.864C24.5175 131.189 24.4285 131.547 24.4247 131.938V133.148C24.4247 133.655 24.5175 134.091 24.7031 134.455C24.8887 134.814 25.1482 135.091 25.4815 135.284C25.8149 135.473 26.205 135.568 26.652 135.568C26.9512 135.568 27.2221 135.527 27.4645 135.443C27.7069 135.356 27.9171 135.229 28.0952 135.062C28.2732 134.896 28.4077 134.689 28.4986 134.443L30.419 134.659C30.2978 135.167 30.0668 135.61 29.7259 135.989C29.3887 136.364 28.9569 136.655 28.4304 136.864C27.9039 137.068 27.3016 137.17 26.6236 137.17ZM34.3011 131.886V137H32.2443V128.273H34.2102V129.756H34.3125C34.5133 129.267 34.8333 128.879 35.2727 128.591C35.7159 128.303 36.2633 128.159 36.9148 128.159C37.517 128.159 38.0417 128.288 38.4886 128.545C38.9394 128.803 39.2879 129.176 39.5341 129.665C39.7841 130.153 39.9072 130.746 39.9034 131.443V137H37.8466V131.761C37.8466 131.178 37.6951 130.722 37.392 130.392C37.0928 130.062 36.678 129.898 36.1477 129.898C35.7879 129.898 35.4678 129.977 35.1875 130.136C34.911 130.292 34.6932 130.517 34.5341 130.812C34.3788 131.108 34.3011 131.466 34.3011 131.886ZM44.0511 131.886V137H41.9943V128.273H43.9602V129.756H44.0625C44.2633 129.267 44.5833 128.879 45.0227 128.591C45.4659 128.303 46.0133 128.159 46.6648 128.159C47.267 128.159 47.7917 128.288 48.2386 128.545C48.6894 128.803 49.0379 129.176 49.2841 129.665C49.5341 130.153 49.6572 130.746 49.6534 131.443V137H47.5966V131.761C47.5966 131.178 47.4451 130.722 47.142 130.392C46.8428 130.062 46.428 129.898 45.8977 129.898C45.5379 129.898 45.2178 129.977 44.9375 130.136C44.661 130.292 44.4432 130.517 44.2841 130.812C44.1288 131.108 44.0511 131.466 44.0511 131.886ZM54.2557 137.176C53.7027 137.176 53.2045 137.078 52.7614 136.881C52.322 136.68 51.9735 136.384 51.7159 135.994C51.4621 135.604 51.3352 135.123 51.3352 134.551C51.3352 134.059 51.4261 133.652 51.608 133.33C51.7898 133.008 52.0379 132.75 52.3523 132.557C52.6667 132.364 53.0208 132.218 53.4148 132.119C53.8125 132.017 54.2235 131.943 54.6477 131.898C55.1591 131.845 55.5739 131.797 55.892 131.756C56.2102 131.71 56.4413 131.642 56.5852 131.551C56.733 131.456 56.8068 131.311 56.8068 131.114V131.08C56.8068 130.652 56.6799 130.32 56.4261 130.085C56.1723 129.85 55.8068 129.733 55.3295 129.733C54.8258 129.733 54.4261 129.843 54.1307 130.062C53.839 130.282 53.642 130.542 53.5398 130.841L51.6193 130.568C51.7708 130.038 52.0208 129.595 52.3693 129.239C52.7178 128.879 53.1439 128.61 53.6477 128.432C54.1515 128.25 54.7083 128.159 55.3182 128.159C55.7386 128.159 56.1572 128.208 56.5739 128.307C56.9905 128.405 57.3712 128.568 57.7159 128.795C58.0606 129.019 58.3371 129.324 58.5455 129.71C58.7576 130.097 58.8636 130.58 58.8636 131.159V137H56.8864V135.801H56.8182C56.6932 136.044 56.517 136.271 56.2898 136.483C56.0663 136.691 55.7841 136.86 55.4432 136.989C55.1061 137.114 54.7102 137.176 54.2557 137.176ZM54.7898 135.665C55.2027 135.665 55.5606 135.583 55.8636 135.42C56.1667 135.254 56.3996 135.034 56.5625 134.761C56.7292 134.489 56.8125 134.191 56.8125 133.869V132.841C56.7481 132.894 56.6383 132.943 56.483 132.989C56.3314 133.034 56.161 133.074 55.9716 133.108C55.7822 133.142 55.5947 133.172 55.4091 133.199C55.2235 133.225 55.0625 133.248 54.9261 133.267C54.6193 133.309 54.3447 133.377 54.1023 133.472C53.8598 133.566 53.6686 133.699 53.5284 133.869C53.3883 134.036 53.3182 134.252 53.3182 134.517C53.3182 134.896 53.4564 135.182 53.733 135.375C54.0095 135.568 54.3617 135.665 54.7898 135.665ZM60.9318 137V128.273H62.9886V137H60.9318ZM61.9659 127.034C61.6402 127.034 61.3598 126.926 61.125 126.71C60.8902 126.491 60.7727 126.227 60.7727 125.92C60.7727 125.61 60.8902 125.347 61.125 125.131C61.3598 124.911 61.6402 124.801 61.9659 124.801C62.2955 124.801 62.5758 124.911 62.8068 125.131C63.0417 125.347 63.1591 125.61 63.1591 125.92C63.1591 126.227 63.0417 126.491 62.8068 126.71C62.5758 126.926 62.2955 127.034 61.9659 127.034ZM69.5838 131.182C69.5838 129.761 69.7713 128.456 70.1463 127.267C70.5251 126.074 71.0876 124.972 71.8338 123.96H73.7713C73.4834 124.335 73.2145 124.795 72.9645 125.341C72.7145 125.883 72.4967 126.477 72.3111 127.125C72.1293 127.769 71.9853 128.437 71.8793 129.131C71.777 129.824 71.7259 130.508 71.7259 131.182C71.7259 132.08 71.8149 132.989 71.9929 133.909C72.1747 134.83 72.419 135.684 72.7259 136.472C73.0365 137.256 73.3849 137.898 73.7713 138.398H71.8338C71.0876 137.386 70.5251 136.286 70.1463 135.097C69.7713 133.903 69.5838 132.598 69.5838 131.182ZM75.3466 137V135.477L79.3864 131.517C79.7727 131.127 80.0947 130.78 80.3523 130.477C80.6098 130.174 80.803 129.881 80.9318 129.597C81.0606 129.312 81.125 129.009 81.125 128.688C81.125 128.32 81.0417 128.006 80.875 127.744C80.7083 127.479 80.4792 127.275 80.1875 127.131C79.8958 126.987 79.5644 126.915 79.1932 126.915C78.8106 126.915 78.4754 126.994 78.1875 127.153C77.8996 127.309 77.6761 127.53 77.517 127.818C77.3617 128.106 77.2841 128.449 77.2841 128.847H75.2784C75.2784 128.108 75.447 127.466 75.7841 126.92C76.1212 126.375 76.5852 125.953 77.1761 125.653C77.7708 125.354 78.4527 125.205 79.2216 125.205C80.0019 125.205 80.6875 125.35 81.2784 125.642C81.8693 125.934 82.3277 126.333 82.6534 126.841C82.983 127.348 83.1477 127.928 83.1477 128.58C83.1477 129.015 83.0644 129.443 82.8977 129.864C82.7311 130.284 82.4375 130.75 82.017 131.261C81.6004 131.773 81.0152 132.392 80.2614 133.119L78.2557 135.159V135.239H83.3239V137H75.3466ZM89.5852 137.222C88.6496 137.222 87.8466 136.985 87.1761 136.511C86.5095 136.034 85.9962 135.347 85.6364 134.449C85.2803 133.547 85.1023 132.462 85.1023 131.193C85.1061 129.924 85.286 128.845 85.642 127.955C86.0019 127.061 86.5152 126.379 87.1818 125.909C87.8523 125.439 88.6534 125.205 89.5852 125.205C90.517 125.205 91.3182 125.439 91.9886 125.909C92.6591 126.379 93.1723 127.061 93.5284 127.955C93.8883 128.848 94.0682 129.928 94.0682 131.193C94.0682 132.466 93.8883 133.553 93.5284 134.455C93.1723 135.352 92.6591 136.038 91.9886 136.511C91.322 136.985 90.5208 137.222 89.5852 137.222ZM89.5852 135.443C90.3125 135.443 90.8864 135.085 91.3068 134.369C91.7311 133.65 91.9432 132.591 91.9432 131.193C91.9432 130.269 91.8466 129.492 91.6534 128.864C91.4602 128.235 91.1875 127.761 90.8352 127.443C90.483 127.121 90.0663 126.96 89.5852 126.96C88.8617 126.96 88.2898 127.32 87.8693 128.04C87.4489 128.756 87.2367 129.807 87.233 131.193C87.2292 132.121 87.322 132.902 87.5114 133.534C87.7045 134.167 87.9773 134.644 88.3295 134.966C88.6818 135.284 89.1004 135.443 89.5852 135.443ZM102.178 134.818V134.205C102.178 133.754 102.272 133.339 102.462 132.96C102.655 132.581 102.935 132.277 103.303 132.045C103.67 131.814 104.115 131.699 104.638 131.699C105.176 131.699 105.626 131.814 105.99 132.045C106.354 132.273 106.628 132.576 106.814 132.955C107.003 133.333 107.098 133.75 107.098 134.205V134.818C107.098 135.269 107.003 135.684 106.814 136.062C106.625 136.441 106.346 136.746 105.979 136.977C105.615 137.208 105.168 137.324 104.638 137.324C104.107 137.324 103.659 137.208 103.291 136.977C102.924 136.746 102.645 136.441 102.456 136.062C102.27 135.684 102.178 135.269 102.178 134.818ZM103.661 134.205V134.818C103.661 135.117 103.732 135.392 103.876 135.642C104.02 135.892 104.274 136.017 104.638 136.017C105.005 136.017 105.257 135.894 105.393 135.648C105.534 135.398 105.604 135.121 105.604 134.818V134.205C105.604 133.902 105.537 133.625 105.405 133.375C105.272 133.121 105.017 132.994 104.638 132.994C104.282 132.994 104.03 133.121 103.882 133.375C103.734 133.625 103.661 133.902 103.661 134.205ZM96.2628 128.159V127.545C96.2628 127.091 96.3594 126.674 96.5526 126.295C96.7457 125.917 97.026 125.614 97.3935 125.386C97.7609 125.155 98.206 125.04 98.7287 125.04C99.2628 125.04 99.7116 125.155 100.075 125.386C100.443 125.614 100.719 125.917 100.905 126.295C101.09 126.674 101.183 127.091 101.183 127.545V128.159C101.183 128.614 101.089 129.03 100.899 129.409C100.714 129.784 100.437 130.085 100.07 130.312C99.7022 130.54 99.2552 130.653 98.7287 130.653C98.1946 130.653 97.7438 130.54 97.3764 130.312C97.0128 130.085 96.7363 129.782 96.5469 129.403C96.3575 129.025 96.2628 128.61 96.2628 128.159ZM97.7571 127.545V128.159C97.7571 128.462 97.8272 128.739 97.9673 128.989C98.1113 129.235 98.3651 129.358 98.7287 129.358C99.0923 129.358 99.3423 129.235 99.4787 128.989C99.6188 128.739 99.6889 128.462 99.6889 128.159V127.545C99.6889 127.242 99.6226 126.966 99.4901 126.716C99.3575 126.462 99.1037 126.335 98.7287 126.335C98.3688 126.335 98.117 126.462 97.973 126.716C97.8291 126.97 97.7571 127.246 97.7571 127.545ZM96.9105 137L104.911 125.364H106.331L98.331 137H96.9105ZM113.149 131.182C113.149 132.598 112.96 133.903 112.581 135.097C112.206 136.286 111.645 137.386 110.899 138.398H108.962C109.253 138.023 109.522 137.564 109.768 137.023C110.018 136.481 110.234 135.886 110.416 135.239C110.602 134.591 110.746 133.92 110.848 133.227C110.954 132.534 111.007 131.852 111.007 131.182C111.007 130.284 110.916 129.375 110.734 128.455C110.556 127.534 110.312 126.68 110.001 125.892C109.695 125.104 109.348 124.46 108.962 123.96H110.899C111.645 124.972 112.206 126.074 112.581 127.267C112.96 128.456 113.149 129.761 113.149 131.182Z" fill="#2C73D2"/>
<path d="M231.5 234V265H166" stroke="#0081CF"/>
<circle cx="167" cy="265" r="3.5" fill="#0081CF" stroke="#0081CF"/>
<circle cx="63" cy="157" r="3.5" fill="#2C73D2" stroke="#2C73D2"/>
<circle cx="135" cy="19" r="3.5" fill="#008E9B" stroke="#008E9B"/>
<circle cx="379" cy="175" r="3.5" fill="#845EC2" stroke="#845EC2"/>
<path d="M152.5 177.5L108.5 194L64 158.5" stroke="#2C73D2"/>
<path d="M159.5 85.5L163 22L135 19" stroke="#008E9B"/>
</svg>
