<svg width="497" height="275" viewBox="0 0 497 275" fill="none" xmlns="http://www.w3.org/2000/svg">
<line x1="38.5" y1="2.18557e-08" x2="38.5" y2="244" stroke="#F2F2F2"/>
<line x1="497" y1="243.5" x2="38" y2="243.5" stroke="#F2F2F2"/>
<path d="M74 50C74 47.2386 76.2386 45 79 45H119C121.761 45 124 47.2386 124 50V243H74V50Z" fill="url(#paint0_linear_223_135)"/>
<path d="M160 114C160 111.239 162.239 109 165 109H205C207.761 109 210 111.239 210 114V243H160V114Z" fill="url(#paint1_linear_223_135)"/>
<path d="M246 50C246 47.2386 248.239 45 251 45H291C293.761 45 296 47.2386 296 50V243H246V50Z" fill="url(#paint2_linear_223_135)"/>
<path d="M332 114C332 111.239 334.239 109 337 109H377C379.761 109 382 111.239 382 114V243H332V114Z" fill="url(#paint3_linear_223_135)"/>
<path d="M418 114C418 111.239 420.239 109 423 109H463C465.761 109 468 111.239 468 114V243H418V114Z" fill="url(#paint4_linear_223_135)"/>
<path d="M19.848 234.114C19.848 234.487 19.8573 234.907 19.876 235.374C19.904 235.831 19.9787 236.265 20.1 236.676C20.2307 237.077 20.436 237.418 20.716 237.698C20.996 237.978 21.388 238.118 21.892 238.118C22.396 238.118 22.788 237.978 23.068 237.698C23.348 237.418 23.5487 237.077 23.67 236.676C23.8007 236.265 23.8753 235.831 23.894 235.374C23.922 234.907 23.936 234.487 23.936 234.114C23.936 233.871 23.9313 233.605 23.922 233.316C23.922 233.017 23.8987 232.723 23.852 232.434C23.8147 232.135 23.754 231.846 23.67 231.566C23.5953 231.286 23.4787 231.043 23.32 230.838C23.1707 230.623 22.9793 230.451 22.746 230.32C22.5127 230.189 22.228 230.124 21.892 230.124C21.556 230.124 21.2713 230.189 21.038 230.32C20.8047 230.451 20.6087 230.623 20.45 230.838C20.3007 231.043 20.184 231.286 20.1 231.566C20.0253 231.846 19.9647 232.135 19.918 232.434C19.8807 232.723 19.8573 233.017 19.848 233.316C19.848 233.605 19.848 233.871 19.848 234.114ZM18.588 234.128C18.588 233.764 18.5973 233.386 18.616 232.994C18.6347 232.602 18.6813 232.219 18.756 231.846C18.8307 231.473 18.938 231.118 19.078 230.782C19.218 230.446 19.4093 230.152 19.652 229.9C19.8947 229.648 20.198 229.447 20.562 229.298C20.9353 229.149 21.3787 229.074 21.892 229.074C22.4053 229.074 22.844 229.149 23.208 229.298C23.5813 229.447 23.8893 229.648 24.132 229.9C24.3747 230.152 24.566 230.446 24.706 230.782C24.846 231.118 24.9533 231.473 25.028 231.846C25.1027 232.219 25.1493 232.602 25.168 232.994C25.1867 233.386 25.196 233.764 25.196 234.128C25.196 234.492 25.1867 234.87 25.168 235.262C25.1493 235.654 25.1027 236.037 25.028 236.41C24.9533 236.783 24.846 237.138 24.706 237.474C24.566 237.801 24.3747 238.09 24.132 238.342C23.8893 238.594 23.586 238.795 23.222 238.944C22.858 239.084 22.4147 239.154 21.892 239.154C21.3787 239.154 20.9353 239.084 20.562 238.944C20.198 238.795 19.8947 238.594 19.652 238.342C19.4093 238.09 19.218 237.801 19.078 237.474C18.938 237.138 18.8307 236.783 18.756 236.41C18.6813 236.037 18.6347 235.654 18.616 235.262C18.5973 234.87 18.588 234.492 18.588 234.128Z" fill="#71717A"/>
<path d="M1.616 176.588C1.588 176.084 1.63933 175.617 1.77 175.188C1.90067 174.759 2.10133 174.39 2.372 174.082C2.652 173.765 2.99733 173.517 3.408 173.34C3.81867 173.163 4.28533 173.074 4.808 173.074C5.23733 173.074 5.63867 173.139 6.012 173.27C6.39467 173.391 6.726 173.573 7.006 173.816C7.286 174.049 7.50533 174.343 7.664 174.698C7.832 175.053 7.916 175.463 7.916 175.93C7.916 176.369 7.846 176.756 7.706 177.092C7.57533 177.428 7.398 177.731 7.174 178.002C6.95 178.263 6.69333 178.501 6.404 178.716C6.11467 178.931 5.816 179.136 5.508 179.332C5.2 179.519 4.892 179.705 4.584 179.892C4.276 180.069 3.99133 180.261 3.73 180.466C3.478 180.671 3.25867 180.895 3.072 181.138C2.89467 181.371 2.778 181.642 2.722 181.95H7.818V183H1.336C1.38267 182.412 1.48533 181.913 1.644 181.502C1.812 181.082 2.022 180.718 2.274 180.41C2.526 180.102 2.81067 179.831 3.128 179.598C3.44533 179.365 3.77667 179.145 4.122 178.94C4.542 178.679 4.91067 178.441 5.228 178.226C5.54533 178.002 5.80667 177.778 6.012 177.554C6.22667 177.33 6.38533 177.087 6.488 176.826C6.6 176.565 6.656 176.261 6.656 175.916C6.656 175.645 6.60467 175.403 6.502 175.188C6.39933 174.964 6.25933 174.773 6.082 174.614C5.914 174.455 5.71333 174.334 5.48 174.25C5.24667 174.166 4.99933 174.124 4.738 174.124C4.39267 174.124 4.094 174.199 3.842 174.348C3.59933 174.488 3.39867 174.675 3.24 174.908C3.08133 175.141 2.96467 175.407 2.89 175.706C2.82467 175.995 2.79667 176.289 2.806 176.588H1.616ZM10.6273 178.114C10.6273 178.487 10.6366 178.907 10.6553 179.374C10.6833 179.831 10.758 180.265 10.8793 180.676C11.01 181.077 11.2153 181.418 11.4953 181.698C11.7753 181.978 12.1673 182.118 12.6713 182.118C13.1753 182.118 13.5673 181.978 13.8473 181.698C14.1273 181.418 14.328 181.077 14.4493 180.676C14.58 180.265 14.6546 179.831 14.6733 179.374C14.7013 178.907 14.7153 178.487 14.7153 178.114C14.7153 177.871 14.7106 177.605 14.7013 177.316C14.7013 177.017 14.678 176.723 14.6313 176.434C14.594 176.135 14.5333 175.846 14.4493 175.566C14.3746 175.286 14.258 175.043 14.0993 174.838C13.95 174.623 13.7586 174.451 13.5253 174.32C13.292 174.189 13.0073 174.124 12.6713 174.124C12.3353 174.124 12.0506 174.189 11.8173 174.32C11.584 174.451 11.388 174.623 11.2293 174.838C11.08 175.043 10.9633 175.286 10.8793 175.566C10.8046 175.846 10.744 176.135 10.6973 176.434C10.66 176.723 10.6366 177.017 10.6273 177.316C10.6273 177.605 10.6273 177.871 10.6273 178.114ZM9.3673 178.128C9.3673 177.764 9.37663 177.386 9.3953 176.994C9.41396 176.602 9.46063 176.219 9.5353 175.846C9.60996 175.473 9.7173 175.118 9.8573 174.782C9.9973 174.446 10.1886 174.152 10.4313 173.9C10.674 173.648 10.9773 173.447 11.3413 173.298C11.7146 173.149 12.158 173.074 12.6713 173.074C13.1846 173.074 13.6233 173.149 13.9873 173.298C14.3606 173.447 14.6686 173.648 14.9113 173.9C15.154 174.152 15.3453 174.446 15.4853 174.782C15.6253 175.118 15.7326 175.473 15.8073 175.846C15.882 176.219 15.9286 176.602 15.9473 176.994C15.966 177.386 15.9753 177.764 15.9753 178.128C15.9753 178.492 15.966 178.87 15.9473 179.262C15.9286 179.654 15.882 180.037 15.8073 180.41C15.7326 180.783 15.6253 181.138 15.4853 181.474C15.3453 181.801 15.154 182.09 14.9113 182.342C14.6686 182.594 14.3653 182.795 14.0013 182.944C13.6373 183.084 13.194 183.154 12.6713 183.154C12.158 183.154 11.7146 183.084 11.3413 182.944C10.9773 182.795 10.674 182.594 10.4313 182.342C10.1886 182.09 9.9973 181.801 9.8573 181.474C9.7173 181.138 9.60996 180.783 9.5353 180.41C9.46063 180.037 9.41396 179.654 9.3953 179.262C9.37663 178.87 9.3673 178.492 9.3673 178.128ZM18.4066 178.114C18.4066 178.487 18.4159 178.907 18.4346 179.374C18.4626 179.831 18.5373 180.265 18.6586 180.676C18.7893 181.077 18.9946 181.418 19.2746 181.698C19.5546 181.978 19.9466 182.118 20.4506 182.118C20.9546 182.118 21.3466 181.978 21.6266 181.698C21.9066 181.418 22.1073 181.077 22.2286 180.676C22.3593 180.265 22.4339 179.831 22.4526 179.374C22.4806 178.907 22.4946 178.487 22.4946 178.114C22.4946 177.871 22.4899 177.605 22.4806 177.316C22.4806 177.017 22.4573 176.723 22.4106 176.434C22.3733 176.135 22.3126 175.846 22.2286 175.566C22.1539 175.286 22.0373 175.043 21.8786 174.838C21.7293 174.623 21.5379 174.451 21.3046 174.32C21.0713 174.189 20.7866 174.124 20.4506 174.124C20.1146 174.124 19.8299 174.189 19.5966 174.32C19.3633 174.451 19.1673 174.623 19.0086 174.838C18.8593 175.043 18.7426 175.286 18.6586 175.566C18.5839 175.846 18.5233 176.135 18.4766 176.434C18.4393 176.723 18.4159 177.017 18.4066 177.316C18.4066 177.605 18.4066 177.871 18.4066 178.114ZM17.1466 178.128C17.1466 177.764 17.1559 177.386 17.1746 176.994C17.1933 176.602 17.2399 176.219 17.3146 175.846C17.3893 175.473 17.4966 175.118 17.6366 174.782C17.7766 174.446 17.9679 174.152 18.2106 173.9C18.4533 173.648 18.7566 173.447 19.1206 173.298C19.4939 173.149 19.9373 173.074 20.4506 173.074C20.9639 173.074 21.4026 173.149 21.7666 173.298C22.1399 173.447 22.4479 173.648 22.6906 173.9C22.9333 174.152 23.1246 174.446 23.2646 174.782C23.4046 175.118 23.5119 175.473 23.5866 175.846C23.6613 176.219 23.7079 176.602 23.7266 176.994C23.7453 177.386 23.7546 177.764 23.7546 178.128C23.7546 178.492 23.7453 178.87 23.7266 179.262C23.7079 179.654 23.6613 180.037 23.5866 180.41C23.5119 180.783 23.4046 181.138 23.2646 181.474C23.1246 181.801 22.9333 182.09 22.6906 182.342C22.4479 182.594 22.1446 182.795 21.7806 182.944C21.4166 183.084 20.9733 183.154 20.4506 183.154C19.9373 183.154 19.4939 183.084 19.1206 182.944C18.7566 182.795 18.4533 182.594 18.2106 182.342C17.9679 182.09 17.7766 181.801 17.6366 181.474C17.4966 181.138 17.3893 180.783 17.3146 180.41C17.2399 180.037 17.1933 179.654 17.1746 179.262C17.1559 178.87 17.1466 178.492 17.1466 178.128Z" fill="#71717A"/>
<path d="M4.746 122.626V117.768H4.718L1.414 122.626H4.746ZM5.866 122.626H7.21V123.676H5.866V126H4.746V123.676H0.392V122.528L4.914 116.074H5.866V122.626ZM9.6273 121.114C9.6273 121.487 9.63663 121.907 9.6553 122.374C9.6833 122.831 9.75796 123.265 9.8793 123.676C10.01 124.077 10.2153 124.418 10.4953 124.698C10.7753 124.978 11.1673 125.118 11.6713 125.118C12.1753 125.118 12.5673 124.978 12.8473 124.698C13.1273 124.418 13.328 124.077 13.4493 123.676C13.58 123.265 13.6546 122.831 13.6733 122.374C13.7013 121.907 13.7153 121.487 13.7153 121.114C13.7153 120.871 13.7106 120.605 13.7013 120.316C13.7013 120.017 13.678 119.723 13.6313 119.434C13.594 119.135 13.5333 118.846 13.4493 118.566C13.3746 118.286 13.258 118.043 13.0993 117.838C12.95 117.623 12.7586 117.451 12.5253 117.32C12.292 117.189 12.0073 117.124 11.6713 117.124C11.3353 117.124 11.0506 117.189 10.8173 117.32C10.584 117.451 10.388 117.623 10.2293 117.838C10.08 118.043 9.9633 118.286 9.8793 118.566C9.80463 118.846 9.74396 119.135 9.6973 119.434C9.65996 119.723 9.63663 120.017 9.6273 120.316C9.6273 120.605 9.6273 120.871 9.6273 121.114ZM8.3673 121.128C8.3673 120.764 8.37663 120.386 8.3953 119.994C8.41396 119.602 8.46063 119.219 8.5353 118.846C8.60996 118.473 8.7173 118.118 8.8573 117.782C8.9973 117.446 9.18863 117.152 9.4313 116.9C9.67396 116.648 9.9773 116.447 10.3413 116.298C10.7146 116.149 11.158 116.074 11.6713 116.074C12.1846 116.074 12.6233 116.149 12.9873 116.298C13.3606 116.447 13.6686 116.648 13.9113 116.9C14.154 117.152 14.3453 117.446 14.4853 117.782C14.6253 118.118 14.7326 118.473 14.8073 118.846C14.882 119.219 14.9286 119.602 14.9473 119.994C14.966 120.386 14.9753 120.764 14.9753 121.128C14.9753 121.492 14.966 121.87 14.9473 122.262C14.9286 122.654 14.882 123.037 14.8073 123.41C14.7326 123.783 14.6253 124.138 14.4853 124.474C14.3453 124.801 14.154 125.09 13.9113 125.342C13.6686 125.594 13.3653 125.795 13.0013 125.944C12.6373 126.084 12.194 126.154 11.6713 126.154C11.158 126.154 10.7146 126.084 10.3413 125.944C9.9773 125.795 9.67396 125.594 9.4313 125.342C9.18863 125.09 8.9973 124.801 8.8573 124.474C8.7173 124.138 8.60996 123.783 8.5353 123.41C8.46063 123.037 8.41396 122.654 8.3953 122.262C8.37663 121.87 8.3673 121.492 8.3673 121.128ZM17.4066 121.114C17.4066 121.487 17.4159 121.907 17.4346 122.374C17.4626 122.831 17.5373 123.265 17.6586 123.676C17.7893 124.077 17.9946 124.418 18.2746 124.698C18.5546 124.978 18.9466 125.118 19.4506 125.118C19.9546 125.118 20.3466 124.978 20.6266 124.698C20.9066 124.418 21.1073 124.077 21.2286 123.676C21.3593 123.265 21.4339 122.831 21.4526 122.374C21.4806 121.907 21.4946 121.487 21.4946 121.114C21.4946 120.871 21.4899 120.605 21.4806 120.316C21.4806 120.017 21.4573 119.723 21.4106 119.434C21.3733 119.135 21.3126 118.846 21.2286 118.566C21.1539 118.286 21.0373 118.043 20.8786 117.838C20.7293 117.623 20.5379 117.451 20.3046 117.32C20.0713 117.189 19.7866 117.124 19.4506 117.124C19.1146 117.124 18.8299 117.189 18.5966 117.32C18.3633 117.451 18.1673 117.623 18.0086 117.838C17.8593 118.043 17.7426 118.286 17.6586 118.566C17.5839 118.846 17.5233 119.135 17.4766 119.434C17.4393 119.723 17.4159 120.017 17.4066 120.316C17.4066 120.605 17.4066 120.871 17.4066 121.114ZM16.1466 121.128C16.1466 120.764 16.1559 120.386 16.1746 119.994C16.1933 119.602 16.2399 119.219 16.3146 118.846C16.3893 118.473 16.4966 118.118 16.6366 117.782C16.7766 117.446 16.9679 117.152 17.2106 116.9C17.4533 116.648 17.7566 116.447 18.1206 116.298C18.4939 116.149 18.9373 116.074 19.4506 116.074C19.9639 116.074 20.4026 116.149 20.7666 116.298C21.1399 116.447 21.4479 116.648 21.6906 116.9C21.9333 117.152 22.1246 117.446 22.2646 117.782C22.4046 118.118 22.5119 118.473 22.5866 118.846C22.6613 119.219 22.7079 119.602 22.7266 119.994C22.7453 120.386 22.7546 120.764 22.7546 121.128C22.7546 121.492 22.7453 121.87 22.7266 122.262C22.7079 122.654 22.6613 123.037 22.5866 123.41C22.5119 123.783 22.4046 124.138 22.2646 124.474C22.1246 124.801 21.9333 125.09 21.6906 125.342C21.4479 125.594 21.1446 125.795 20.7806 125.944C20.4166 126.084 19.9733 126.154 19.4506 126.154C18.9373 126.154 18.4939 126.084 18.1206 125.944C17.7566 125.795 17.4533 125.594 17.2106 125.342C16.9679 125.09 16.7766 124.801 16.6366 124.474C16.4966 124.138 16.3893 123.783 16.3146 123.41C16.2399 123.037 16.1933 122.654 16.1746 122.262C16.1559 121.87 16.1466 121.492 16.1466 121.128Z" fill="#71717A"/>
<path d="M5.796 62.608C5.74 62.16 5.56733 61.8007 5.278 61.53C4.98867 61.2593 4.606 61.124 4.13 61.124C3.626 61.124 3.22 61.25 2.912 61.502C2.604 61.7447 2.36133 62.0573 2.184 62.44C2.016 62.8133 1.89933 63.2193 1.834 63.658C1.76867 64.0967 1.73133 64.5073 1.722 64.89L1.75 64.918C2.03 64.4607 2.37533 64.1293 2.786 63.924C3.206 63.7187 3.68667 63.616 4.228 63.616C4.704 63.616 5.12867 63.7 5.502 63.868C5.88467 64.0267 6.202 64.2507 6.454 64.54C6.71533 64.8293 6.916 65.17 7.056 65.562C7.196 65.954 7.266 66.3787 7.266 66.836C7.266 67.2 7.21 67.578 7.098 67.97C6.986 68.362 6.79933 68.7213 6.538 69.048C6.286 69.3653 5.94533 69.6313 5.516 69.846C5.096 70.0513 4.57333 70.154 3.948 70.154C3.21067 70.154 2.618 70.0047 2.17 69.706C1.722 69.4073 1.37667 69.0247 1.134 68.558C0.891333 68.0913 0.728 67.578 0.644 67.018C0.569333 66.458 0.532 65.9167 0.532 65.394C0.532 64.7127 0.588 64.0547 0.7 63.42C0.821333 62.776 1.022 62.2067 1.302 61.712C1.582 61.2173 1.95533 60.8207 2.422 60.522C2.88867 60.2233 3.47667 60.074 4.186 60.074C5.00733 60.074 5.66067 60.2933 6.146 60.732C6.63133 61.1613 6.91133 61.7867 6.986 62.608H5.796ZM4.004 64.666C3.668 64.666 3.374 64.7267 3.122 64.848C2.87 64.96 2.65533 65.1187 2.478 65.324C2.30067 65.52 2.16533 65.758 2.072 66.038C1.988 66.3087 1.946 66.598 1.946 66.906C1.946 67.214 1.99267 67.5033 2.086 67.774C2.17933 68.0447 2.31 68.278 2.478 68.474C2.65533 68.67 2.87 68.8287 3.122 68.95C3.38333 69.062 3.67733 69.118 4.004 69.118C4.33067 69.118 4.61533 69.062 4.858 68.95C5.11 68.8287 5.32 68.6653 5.488 68.46C5.656 68.2547 5.782 68.0213 5.866 67.76C5.95933 67.4893 6.006 67.2093 6.006 66.92C6.006 66.612 5.964 66.3227 5.88 66.052C5.80533 65.772 5.684 65.534 5.516 65.338C5.348 65.1327 5.138 64.9693 4.886 64.848C4.634 64.7267 4.34 64.666 4.004 64.666ZM9.6273 65.114C9.6273 65.4873 9.63663 65.9073 9.6553 66.374C9.6833 66.8313 9.75796 67.2653 9.8793 67.676C10.01 68.0773 10.2153 68.418 10.4953 68.698C10.7753 68.978 11.1673 69.118 11.6713 69.118C12.1753 69.118 12.5673 68.978 12.8473 68.698C13.1273 68.418 13.328 68.0773 13.4493 67.676C13.58 67.2653 13.6546 66.8313 13.6733 66.374C13.7013 65.9073 13.7153 65.4873 13.7153 65.114C13.7153 64.8713 13.7106 64.6053 13.7013 64.316C13.7013 64.0173 13.678 63.7233 13.6313 63.434C13.594 63.1353 13.5333 62.846 13.4493 62.566C13.3746 62.286 13.258 62.0433 13.0993 61.838C12.95 61.6233 12.7586 61.4507 12.5253 61.32C12.292 61.1893 12.0073 61.124 11.6713 61.124C11.3353 61.124 11.0506 61.1893 10.8173 61.32C10.584 61.4507 10.388 61.6233 10.2293 61.838C10.08 62.0433 9.9633 62.286 9.8793 62.566C9.80463 62.846 9.74396 63.1353 9.6973 63.434C9.65996 63.7233 9.63663 64.0173 9.6273 64.316C9.6273 64.6053 9.6273 64.8713 9.6273 65.114ZM8.3673 65.128C8.3673 64.764 8.37663 64.386 8.3953 63.994C8.41396 63.602 8.46063 63.2193 8.5353 62.846C8.60996 62.4727 8.7173 62.118 8.8573 61.782C8.9973 61.446 9.18863 61.152 9.4313 60.9C9.67396 60.648 9.9773 60.4473 10.3413 60.298C10.7146 60.1487 11.158 60.074 11.6713 60.074C12.1846 60.074 12.6233 60.1487 12.9873 60.298C13.3606 60.4473 13.6686 60.648 13.9113 60.9C14.154 61.152 14.3453 61.446 14.4853 61.782C14.6253 62.118 14.7326 62.4727 14.8073 62.846C14.882 63.2193 14.9286 63.602 14.9473 63.994C14.966 64.386 14.9753 64.764 14.9753 65.128C14.9753 65.492 14.966 65.87 14.9473 66.262C14.9286 66.654 14.882 67.0367 14.8073 67.41C14.7326 67.7833 14.6253 68.138 14.4853 68.474C14.3453 68.8007 14.154 69.09 13.9113 69.342C13.6686 69.594 13.3653 69.7947 13.0013 69.944C12.6373 70.084 12.194 70.154 11.6713 70.154C11.158 70.154 10.7146 70.084 10.3413 69.944C9.9773 69.7947 9.67396 69.594 9.4313 69.342C9.18863 69.09 8.9973 68.8007 8.8573 68.474C8.7173 68.138 8.60996 67.7833 8.5353 67.41C8.46063 67.0367 8.41396 66.654 8.3953 66.262C8.37663 65.87 8.3673 65.492 8.3673 65.128ZM17.4066 65.114C17.4066 65.4873 17.4159 65.9073 17.4346 66.374C17.4626 66.8313 17.5373 67.2653 17.6586 67.676C17.7893 68.0773 17.9946 68.418 18.2746 68.698C18.5546 68.978 18.9466 69.118 19.4506 69.118C19.9546 69.118 20.3466 68.978 20.6266 68.698C20.9066 68.418 21.1073 68.0773 21.2286 67.676C21.3593 67.2653 21.4339 66.8313 21.4526 66.374C21.4806 65.9073 21.4946 65.4873 21.4946 65.114C21.4946 64.8713 21.4899 64.6053 21.4806 64.316C21.4806 64.0173 21.4573 63.7233 21.4106 63.434C21.3733 63.1353 21.3126 62.846 21.2286 62.566C21.1539 62.286 21.0373 62.0433 20.8786 61.838C20.7293 61.6233 20.5379 61.4507 20.3046 61.32C20.0713 61.1893 19.7866 61.124 19.4506 61.124C19.1146 61.124 18.8299 61.1893 18.5966 61.32C18.3633 61.4507 18.1673 61.6233 18.0086 61.838C17.8593 62.0433 17.7426 62.286 17.6586 62.566C17.5839 62.846 17.5233 63.1353 17.4766 63.434C17.4393 63.7233 17.4159 64.0173 17.4066 64.316C17.4066 64.6053 17.4066 64.8713 17.4066 65.114ZM16.1466 65.128C16.1466 64.764 16.1559 64.386 16.1746 63.994C16.1933 63.602 16.2399 63.2193 16.3146 62.846C16.3893 62.4727 16.4966 62.118 16.6366 61.782C16.7766 61.446 16.9679 61.152 17.2106 60.9C17.4533 60.648 17.7566 60.4473 18.1206 60.298C18.4939 60.1487 18.9373 60.074 19.4506 60.074C19.9639 60.074 20.4026 60.1487 20.7666 60.298C21.1399 60.4473 21.4479 60.648 21.6906 60.9C21.9333 61.152 22.1246 61.446 22.2646 61.782C22.4046 62.118 22.5119 62.4727 22.5866 62.846C22.6613 63.2193 22.7079 63.602 22.7266 63.994C22.7453 64.386 22.7546 64.764 22.7546 65.128C22.7546 65.492 22.7453 65.87 22.7266 66.262C22.7079 66.654 22.6613 67.0367 22.5866 67.41C22.5119 67.7833 22.4046 68.138 22.2646 68.474C22.1246 68.8007 21.9333 69.09 21.6906 69.342C21.4479 69.594 21.1446 69.7947 20.7806 69.944C20.4166 70.084 19.9733 70.154 19.4506 70.154C18.9373 70.154 18.4939 70.084 18.1206 69.944C17.7566 69.7947 17.4533 69.594 17.2106 69.342C16.9679 69.09 16.7766 68.8007 16.6366 68.474C16.4966 68.138 16.3893 67.7833 16.3146 67.41C16.2399 67.0367 16.1933 66.654 16.1746 66.262C16.1559 65.87 16.1466 65.492 16.1466 65.128Z" fill="#71717A"/>
<path d="M2.17 12.65C2.17 12.9207 2.21667 13.1587 2.31 13.364C2.40333 13.56 2.52933 13.7233 2.688 13.854C2.84667 13.9847 3.03333 14.0827 3.248 14.148C3.46267 14.2133 3.69133 14.246 3.934 14.246C4.41 14.246 4.802 14.106 5.11 13.826C5.418 13.546 5.572 13.154 5.572 12.65C5.572 12.146 5.41333 11.768 5.096 11.516C4.788 11.2547 4.39133 11.124 3.906 11.124C3.67267 11.124 3.44867 11.1567 3.234 11.222C3.01933 11.2873 2.83267 11.3853 2.674 11.516C2.52467 11.6467 2.40333 11.8053 2.31 11.992C2.21667 12.1787 2.17 12.398 2.17 12.65ZM0.91 12.608C0.91 12.1973 0.989333 11.838 1.148 11.53C1.30667 11.2127 1.52133 10.9467 1.792 10.732C2.06267 10.5173 2.37067 10.354 2.716 10.242C3.07067 10.13 3.43933 10.074 3.822 10.074C4.36333 10.074 4.82533 10.1487 5.208 10.298C5.59067 10.438 5.89867 10.6293 6.132 10.872C6.37467 11.1053 6.552 11.376 6.664 11.684C6.776 11.9827 6.832 12.2907 6.832 12.608C6.832 13.056 6.706 13.4667 6.454 13.84C6.21133 14.204 5.88 14.4793 5.46 14.666C6.05733 14.8527 6.50067 15.1607 6.79 15.59C7.07933 16.01 7.224 16.528 7.224 17.144C7.224 17.6293 7.13533 18.0587 6.958 18.432C6.79 18.8053 6.55667 19.1227 6.258 19.384C5.96867 19.636 5.62333 19.8273 5.222 19.958C4.82067 20.0887 4.39133 20.154 3.934 20.154C3.458 20.154 3.01467 20.0933 2.604 19.972C2.19333 19.8507 1.834 19.664 1.526 19.412C1.22733 19.16 0.989333 18.8473 0.812 18.474C0.644 18.0913 0.56 17.648 0.56 17.144C0.56 16.556 0.709333 16.0473 1.008 15.618C1.30667 15.1793 1.736 14.862 2.296 14.666C1.876 14.498 1.54 14.2273 1.288 13.854C1.036 13.4713 0.91 13.056 0.91 12.608ZM1.82 17.2C1.82 17.7973 2.016 18.2687 2.408 18.614C2.80933 18.95 3.318 19.118 3.934 19.118C4.23267 19.118 4.50333 19.0713 4.746 18.978C4.998 18.8753 5.21267 18.74 5.39 18.572C5.57667 18.3947 5.71667 18.1893 5.81 17.956C5.91267 17.7227 5.964 17.466 5.964 17.186C5.964 16.9153 5.908 16.668 5.796 16.444C5.69333 16.2107 5.54867 16.01 5.362 15.842C5.17533 15.674 4.956 15.5433 4.704 15.45C4.46133 15.3473 4.2 15.296 3.92 15.296C3.63067 15.296 3.35533 15.3427 3.094 15.436C2.842 15.52 2.618 15.646 2.422 15.814C2.23533 15.982 2.086 16.1827 1.974 16.416C1.87133 16.6493 1.82 16.9107 1.82 17.2ZM9.6273 15.114C9.6273 15.4873 9.63663 15.9073 9.6553 16.374C9.6833 16.8313 9.75796 17.2653 9.8793 17.676C10.01 18.0773 10.2153 18.418 10.4953 18.698C10.7753 18.978 11.1673 19.118 11.6713 19.118C12.1753 19.118 12.5673 18.978 12.8473 18.698C13.1273 18.418 13.328 18.0773 13.4493 17.676C13.58 17.2653 13.6546 16.8313 13.6733 16.374C13.7013 15.9073 13.7153 15.4873 13.7153 15.114C13.7153 14.8713 13.7106 14.6053 13.7013 14.316C13.7013 14.0173 13.678 13.7233 13.6313 13.434C13.594 13.1353 13.5333 12.846 13.4493 12.566C13.3746 12.286 13.258 12.0433 13.0993 11.838C12.95 11.6233 12.7586 11.4507 12.5253 11.32C12.292 11.1893 12.0073 11.124 11.6713 11.124C11.3353 11.124 11.0506 11.1893 10.8173 11.32C10.584 11.4507 10.388 11.6233 10.2293 11.838C10.08 12.0433 9.9633 12.286 9.8793 12.566C9.80463 12.846 9.74396 13.1353 9.6973 13.434C9.65996 13.7233 9.63663 14.0173 9.6273 14.316C9.6273 14.6053 9.6273 14.8713 9.6273 15.114ZM8.3673 15.128C8.3673 14.764 8.37663 14.386 8.3953 13.994C8.41396 13.602 8.46063 13.2193 8.5353 12.846C8.60996 12.4727 8.7173 12.118 8.8573 11.782C8.9973 11.446 9.18863 11.152 9.4313 10.9C9.67396 10.648 9.9773 10.4473 10.3413 10.298C10.7146 10.1487 11.158 10.074 11.6713 10.074C12.1846 10.074 12.6233 10.1487 12.9873 10.298C13.3606 10.4473 13.6686 10.648 13.9113 10.9C14.154 11.152 14.3453 11.446 14.4853 11.782C14.6253 12.118 14.7326 12.4727 14.8073 12.846C14.882 13.2193 14.9286 13.602 14.9473 13.994C14.966 14.386 14.9753 14.764 14.9753 15.128C14.9753 15.492 14.966 15.87 14.9473 16.262C14.9286 16.654 14.882 17.0367 14.8073 17.41C14.7326 17.7833 14.6253 18.138 14.4853 18.474C14.3453 18.8007 14.154 19.09 13.9113 19.342C13.6686 19.594 13.3653 19.7947 13.0013 19.944C12.6373 20.084 12.194 20.154 11.6713 20.154C11.158 20.154 10.7146 20.084 10.3413 19.944C9.9773 19.7947 9.67396 19.594 9.4313 19.342C9.18863 19.09 8.9973 18.8007 8.8573 18.474C8.7173 18.138 8.60996 17.7833 8.5353 17.41C8.46063 17.0367 8.41396 16.654 8.3953 16.262C8.37663 15.87 8.3673 15.492 8.3673 15.128ZM17.4066 15.114C17.4066 15.4873 17.4159 15.9073 17.4346 16.374C17.4626 16.8313 17.5373 17.2653 17.6586 17.676C17.7893 18.0773 17.9946 18.418 18.2746 18.698C18.5546 18.978 18.9466 19.118 19.4506 19.118C19.9546 19.118 20.3466 18.978 20.6266 18.698C20.9066 18.418 21.1073 18.0773 21.2286 17.676C21.3593 17.2653 21.4339 16.8313 21.4526 16.374C21.4806 15.9073 21.4946 15.4873 21.4946 15.114C21.4946 14.8713 21.4899 14.6053 21.4806 14.316C21.4806 14.0173 21.4573 13.7233 21.4106 13.434C21.3733 13.1353 21.3126 12.846 21.2286 12.566C21.1539 12.286 21.0373 12.0433 20.8786 11.838C20.7293 11.6233 20.5379 11.4507 20.3046 11.32C20.0713 11.1893 19.7866 11.124 19.4506 11.124C19.1146 11.124 18.8299 11.1893 18.5966 11.32C18.3633 11.4507 18.1673 11.6233 18.0086 11.838C17.8593 12.0433 17.7426 12.286 17.6586 12.566C17.5839 12.846 17.5233 13.1353 17.4766 13.434C17.4393 13.7233 17.4159 14.0173 17.4066 14.316C17.4066 14.6053 17.4066 14.8713 17.4066 15.114ZM16.1466 15.128C16.1466 14.764 16.1559 14.386 16.1746 13.994C16.1933 13.602 16.2399 13.2193 16.3146 12.846C16.3893 12.4727 16.4966 12.118 16.6366 11.782C16.7766 11.446 16.9679 11.152 17.2106 10.9C17.4533 10.648 17.7566 10.4473 18.1206 10.298C18.4939 10.1487 18.9373 10.074 19.4506 10.074C19.9639 10.074 20.4026 10.1487 20.7666 10.298C21.1399 10.4473 21.4479 10.648 21.6906 10.9C21.9333 11.152 22.1246 11.446 22.2646 11.782C22.4046 12.118 22.5119 12.4727 22.5866 12.846C22.6613 13.2193 22.7079 13.602 22.7266 13.994C22.7453 14.386 22.7546 14.764 22.7546 15.128C22.7546 15.492 22.7453 15.87 22.7266 16.262C22.7079 16.654 22.6613 17.0367 22.5866 17.41C22.5119 17.7833 22.4046 18.138 22.2646 18.474C22.1246 18.8007 21.9333 19.09 21.6906 19.342C21.4479 19.594 21.1446 19.7947 20.7806 19.944C20.4166 20.084 19.9733 20.154 19.4506 20.154C18.9373 20.154 18.4939 20.084 18.1206 19.944C17.7566 19.7947 17.4533 19.594 17.2106 19.342C16.9679 19.09 16.7766 18.8007 16.6366 18.474C16.4966 18.138 16.3893 17.7833 16.3146 17.41C16.2399 17.0367 16.1933 16.654 16.1746 16.262C16.1559 15.87 16.1466 15.492 16.1466 15.128Z" fill="#71717A"/>
<path d="M68.8295 260.455C68.7784 260.023 68.571 259.688 68.2074 259.449C67.8438 259.21 67.3977 259.091 66.8693 259.091C66.483 259.091 66.1449 259.153 65.8551 259.278C65.5682 259.403 65.3438 259.575 65.1818 259.794C65.0227 260.013 64.9432 260.261 64.9432 260.54C64.9432 260.773 64.9986 260.973 65.1094 261.141C65.223 261.305 65.3679 261.443 65.544 261.554C65.7202 261.662 65.9048 261.751 66.098 261.822C66.2912 261.891 66.4688 261.946 66.6307 261.989L67.517 262.227C67.7443 262.287 67.9972 262.369 68.2756 262.474C68.5568 262.58 68.8253 262.723 69.081 262.905C69.3395 263.084 69.5526 263.314 69.7202 263.595C69.8878 263.876 69.9716 264.222 69.9716 264.631C69.9716 265.102 69.848 265.528 69.6009 265.909C69.3565 266.29 68.9986 266.592 68.527 266.817C68.0582 267.041 67.4886 267.153 66.8182 267.153C66.1932 267.153 65.652 267.053 65.1946 266.851C64.7401 266.649 64.3821 266.368 64.1207 266.007C63.8622 265.646 63.7159 265.227 63.6818 264.75H64.7727C64.8011 265.08 64.9119 265.352 65.1051 265.568C65.3011 265.781 65.5483 265.94 65.8466 266.045C66.1477 266.148 66.4716 266.199 66.8182 266.199C67.2216 266.199 67.5838 266.134 67.9048 266.003C68.2259 265.869 68.4801 265.685 68.6676 265.449C68.8551 265.21 68.9489 264.932 68.9489 264.614C68.9489 264.324 68.8679 264.088 68.706 263.906C68.544 263.724 68.331 263.577 68.0668 263.463C67.8026 263.349 67.517 263.25 67.2102 263.165L66.1364 262.858C65.4545 262.662 64.9148 262.382 64.517 262.018C64.1193 261.655 63.9205 261.179 63.9205 260.591C63.9205 260.102 64.0526 259.676 64.3168 259.312C64.5838 258.946 64.9418 258.662 65.3906 258.46C65.8423 258.256 66.3466 258.153 66.9034 258.153C67.4659 258.153 67.9659 258.254 68.4034 258.456C68.8409 258.655 69.1875 258.928 69.4432 259.274C69.7017 259.621 69.8381 260.014 69.8523 260.455H68.8295ZM75.6978 264.324V260.455H76.7035V267H75.6978V265.892H75.6296C75.4762 266.224 75.2376 266.507 74.9137 266.74C74.5898 266.97 74.1808 267.085 73.6864 267.085C73.2773 267.085 72.9137 266.996 72.5955 266.817C72.2773 266.635 72.0273 266.362 71.8455 265.999C71.6637 265.632 71.5728 265.17 71.5728 264.614V260.455H72.5785V264.545C72.5785 265.023 72.712 265.403 72.979 265.688C73.2489 265.972 73.5927 266.114 74.0103 266.114C74.2603 266.114 74.5146 266.05 74.7731 265.922C75.0344 265.794 75.2532 265.598 75.4293 265.334C75.6083 265.07 75.6978 264.733 75.6978 264.324ZM78.5455 269.455V260.455H79.517V261.494H79.6364C79.7102 261.381 79.8125 261.236 79.9432 261.06C80.0767 260.881 80.267 260.722 80.5142 260.582C80.7642 260.44 81.1023 260.369 81.5284 260.369C82.0795 260.369 82.5653 260.507 82.9858 260.783C83.4063 261.058 83.7344 261.449 83.9702 261.955C84.206 262.46 84.3239 263.057 84.3239 263.744C84.3239 264.438 84.206 265.038 83.9702 265.547C83.7344 266.053 83.4077 266.445 82.9901 266.723C82.5724 266.999 82.0909 267.136 81.5455 267.136C81.125 267.136 80.7884 267.067 80.5355 266.928C80.2827 266.786 80.0881 266.625 79.9517 266.446C79.8153 266.264 79.7102 266.114 79.6364 265.994H79.5511V269.455H78.5455ZM79.5341 263.727C79.5341 264.222 79.6065 264.658 79.7514 265.036C79.8963 265.411 80.108 265.705 80.3864 265.918C80.6648 266.128 81.0057 266.233 81.4091 266.233C81.8295 266.233 82.1804 266.122 82.4616 265.901C82.7457 265.676 82.9588 265.375 83.1009 264.997C83.2457 264.616 83.3182 264.193 83.3182 263.727C83.3182 263.267 83.2472 262.852 83.1051 262.483C82.9659 262.111 82.7543 261.817 82.4702 261.601C82.1889 261.382 81.8352 261.273 81.4091 261.273C81 261.273 80.6563 261.376 80.3778 261.584C80.0994 261.788 79.8892 262.075 79.7472 262.445C79.6051 262.811 79.5341 263.239 79.5341 263.727ZM85.858 267V260.455H86.8295V261.443H86.8977C87.017 261.119 87.233 260.857 87.5455 260.655C87.858 260.453 88.2102 260.352 88.6023 260.352C88.6761 260.352 88.7685 260.354 88.8793 260.357C88.9901 260.359 89.0739 260.364 89.1307 260.369V261.392C89.0966 261.384 89.0185 261.371 88.8963 261.354C88.777 261.334 88.6506 261.324 88.517 261.324C88.1989 261.324 87.9148 261.391 87.6648 261.524C87.4176 261.655 87.2216 261.837 87.0767 262.07C86.9347 262.3 86.8636 262.562 86.8636 262.858V267H85.858ZM92.8679 267.136C92.2372 267.136 91.6932 266.997 91.2358 266.719C90.7812 266.438 90.4304 266.045 90.1832 265.543C89.9389 265.037 89.8168 264.449 89.8168 263.778C89.8168 263.108 89.9389 262.517 90.1832 262.006C90.4304 261.491 90.7741 261.091 91.2145 260.804C91.6577 260.514 92.1747 260.369 92.7656 260.369C93.1065 260.369 93.4432 260.426 93.7756 260.54C94.108 260.653 94.4105 260.838 94.6832 261.094C94.956 261.347 95.1733 261.682 95.3352 262.099C95.4972 262.517 95.5781 263.031 95.5781 263.642V264.068H90.5327V263.199H94.5554C94.5554 262.83 94.4815 262.5 94.3338 262.21C94.1889 261.92 93.9815 261.692 93.7116 261.524C93.4446 261.357 93.1293 261.273 92.7656 261.273C92.3651 261.273 92.0185 261.372 91.7259 261.571C91.4361 261.767 91.2131 262.023 91.0568 262.338C90.9006 262.653 90.8224 262.991 90.8224 263.352V263.932C90.8224 264.426 90.9077 264.845 91.0781 265.189C91.2514 265.53 91.4915 265.79 91.7983 265.969C92.1051 266.145 92.4616 266.233 92.8679 266.233C93.1321 266.233 93.3707 266.196 93.5838 266.122C93.7997 266.045 93.9858 265.932 94.142 265.781C94.2983 265.628 94.419 265.437 94.5043 265.21L95.4759 265.483C95.3736 265.812 95.2017 266.102 94.9602 266.352C94.7188 266.599 94.4205 266.793 94.0653 266.932C93.7102 267.068 93.3111 267.136 92.8679 267.136ZM97.108 267V260.455H98.0795V261.477H98.1648C98.3011 261.128 98.5213 260.857 98.8253 260.663C99.1293 260.467 99.4943 260.369 99.9205 260.369C100.352 260.369 100.712 260.467 100.999 260.663C101.288 260.857 101.514 261.128 101.676 261.477H101.744C101.912 261.139 102.163 260.871 102.499 260.672C102.834 260.47 103.236 260.369 103.705 260.369C104.29 260.369 104.768 260.553 105.141 260.919C105.513 261.283 105.699 261.849 105.699 262.619V267H104.693V262.619C104.693 262.136 104.561 261.791 104.297 261.584C104.033 261.376 103.722 261.273 103.364 261.273C102.903 261.273 102.547 261.412 102.294 261.69C102.041 261.966 101.915 262.315 101.915 262.739V267H100.892V262.517C100.892 262.145 100.771 261.845 100.53 261.618C100.288 261.388 99.9773 261.273 99.5966 261.273C99.3352 261.273 99.0909 261.342 98.8636 261.482C98.6392 261.621 98.4574 261.814 98.3182 262.061C98.1818 262.305 98.1136 262.588 98.1136 262.909V267H97.108ZM110.282 267.136C109.651 267.136 109.107 266.997 108.65 266.719C108.195 266.438 107.844 266.045 107.597 265.543C107.353 265.037 107.231 264.449 107.231 263.778C107.231 263.108 107.353 262.517 107.597 262.006C107.844 261.491 108.188 261.091 108.629 260.804C109.072 260.514 109.589 260.369 110.18 260.369C110.521 260.369 110.857 260.426 111.19 260.54C111.522 260.653 111.825 260.838 112.097 261.094C112.37 261.347 112.587 261.682 112.749 262.099C112.911 262.517 112.992 263.031 112.992 263.642V264.068H107.947V263.199H111.969C111.969 262.83 111.896 262.5 111.748 262.21C111.603 261.92 111.396 261.692 111.126 261.524C110.859 261.357 110.543 261.273 110.18 261.273C109.779 261.273 109.433 261.372 109.14 261.571C108.85 261.767 108.627 262.023 108.471 262.338C108.315 262.653 108.237 262.991 108.237 263.352V263.932C108.237 264.426 108.322 264.845 108.492 265.189C108.665 265.53 108.906 265.79 109.212 265.969C109.519 266.145 109.876 266.233 110.282 266.233C110.546 266.233 110.785 266.196 110.998 266.122C111.214 266.045 111.4 265.932 111.556 265.781C111.712 265.628 111.833 265.437 111.918 265.21L112.89 265.483C112.788 265.812 112.616 266.102 112.374 266.352C112.133 266.599 111.835 266.793 111.479 266.932C111.124 267.068 110.725 267.136 110.282 267.136ZM118.033 267V258.273H119.09V262.159H123.744V258.273H124.8V267H123.744V263.097H119.09V267H118.033ZM130.087 264.273H131.246L132.217 265.551L132.473 265.892L133.922 267.818H132.763L131.808 266.54L131.57 266.216L130.087 264.273ZM134.28 262.636C134.28 263.557 134.114 264.352 133.781 265.023C133.449 265.693 132.993 266.21 132.413 266.574C131.834 266.938 131.172 267.119 130.428 267.119C129.683 267.119 129.021 266.938 128.442 266.574C127.862 266.21 127.406 265.693 127.074 265.023C126.741 264.352 126.575 263.557 126.575 262.636C126.575 261.716 126.741 260.92 127.074 260.25C127.406 259.58 127.862 259.062 128.442 258.699C129.021 258.335 129.683 258.153 130.428 258.153C131.172 258.153 131.834 258.335 132.413 258.699C132.993 259.062 133.449 259.58 133.781 260.25C134.114 260.92 134.28 261.716 134.28 262.636ZM133.257 262.636C133.257 261.881 133.131 261.243 132.878 260.723C132.628 260.203 132.288 259.81 131.859 259.543C131.433 259.276 130.956 259.142 130.428 259.142C129.899 259.142 129.42 259.276 128.991 259.543C128.565 259.81 128.226 260.203 127.973 260.723C127.723 261.243 127.598 261.881 127.598 262.636C127.598 263.392 127.723 264.03 127.973 264.55C128.226 265.07 128.565 265.463 128.991 265.73C129.42 265.997 129.899 266.131 130.428 266.131C130.956 266.131 131.433 265.997 131.859 265.73C132.288 265.463 132.628 265.07 132.878 264.55C133.131 264.03 133.257 263.392 133.257 262.636Z" fill="black"/>
<path d="M158.415 267H157.307L160.511 258.273H161.602L164.807 267H163.699L161.091 259.653H161.023L158.415 267ZM158.824 263.591H163.29V264.528H158.824V263.591ZM168.791 258.153C169.149 258.156 169.507 258.224 169.865 258.358C170.223 258.491 170.55 258.713 170.845 259.023C171.141 259.33 171.378 259.749 171.557 260.28C171.736 260.811 171.825 261.477 171.825 262.278C171.825 263.054 171.751 263.743 171.604 264.345C171.459 264.945 171.249 265.45 170.973 265.862C170.7 266.274 170.368 266.587 169.976 266.8C169.587 267.013 169.146 267.119 168.655 267.119C168.166 267.119 167.73 267.023 167.347 266.83C166.966 266.634 166.653 266.362 166.409 266.016C166.168 265.666 166.013 265.261 165.945 264.801H166.984C167.078 265.202 167.264 265.533 167.543 265.794C167.824 266.053 168.195 266.182 168.655 266.182C169.328 266.182 169.859 265.888 170.249 265.3C170.641 264.712 170.837 263.881 170.837 262.807H170.768C170.609 263.045 170.42 263.251 170.202 263.425C169.983 263.598 169.74 263.732 169.473 263.825C169.206 263.919 168.922 263.966 168.621 263.966C168.121 263.966 167.662 263.842 167.244 263.595C166.83 263.345 166.497 263.003 166.247 262.568C166 262.131 165.876 261.631 165.876 261.068C165.876 260.534 165.996 260.045 166.234 259.602C166.476 259.156 166.814 258.801 167.249 258.537C167.686 258.273 168.2 258.145 168.791 258.153ZM168.791 259.091C168.433 259.091 168.111 259.18 167.824 259.359C167.54 259.536 167.314 259.774 167.146 260.075C166.982 260.374 166.899 260.705 166.899 261.068C166.899 261.432 166.979 261.763 167.138 262.061C167.3 262.357 167.52 262.592 167.798 262.768C168.08 262.942 168.399 263.028 168.757 263.028C169.027 263.028 169.278 262.976 169.511 262.871C169.744 262.763 169.947 262.616 170.121 262.432C170.297 262.244 170.435 262.033 170.534 261.797C170.634 261.558 170.683 261.31 170.683 261.051C170.683 260.71 170.601 260.391 170.436 260.092C170.274 259.794 170.05 259.553 169.763 259.368C169.479 259.183 169.155 259.091 168.791 259.091ZM177.029 267V258.273H179.978C180.66 258.273 181.22 258.389 181.657 258.622C182.095 258.852 182.419 259.169 182.629 259.572C182.839 259.976 182.944 260.435 182.944 260.949C182.944 261.463 182.839 261.919 182.629 262.317C182.419 262.714 182.096 263.027 181.662 263.254C181.227 263.479 180.672 263.591 179.995 263.591H177.609V262.636H179.961C180.427 262.636 180.802 262.568 181.086 262.432C181.373 262.295 181.581 262.102 181.708 261.852C181.839 261.599 181.904 261.298 181.904 260.949C181.904 260.599 181.839 260.294 181.708 260.033C181.578 259.771 181.369 259.57 181.082 259.428C180.795 259.283 180.416 259.21 179.944 259.21H178.086V267H177.029ZM181.137 263.08L183.285 267H182.058L179.944 263.08H181.137ZM187.243 267.136C186.612 267.136 186.068 266.997 185.611 266.719C185.156 266.438 184.805 266.045 184.558 265.543C184.314 265.037 184.192 264.449 184.192 263.778C184.192 263.108 184.314 262.517 184.558 262.006C184.805 261.491 185.149 261.091 185.589 260.804C186.033 260.514 186.55 260.369 187.141 260.369C187.482 260.369 187.818 260.426 188.151 260.54C188.483 260.653 188.786 260.838 189.058 261.094C189.331 261.347 189.548 261.682 189.71 262.099C189.872 262.517 189.953 263.031 189.953 263.642V264.068H184.908V263.199H188.93C188.93 262.83 188.857 262.5 188.709 262.21C188.564 261.92 188.357 261.692 188.087 261.524C187.82 261.357 187.504 261.273 187.141 261.273C186.74 261.273 186.393 261.372 186.101 261.571C185.811 261.767 185.588 262.023 185.432 262.338C185.276 262.653 185.197 262.991 185.197 263.352V263.932C185.197 264.426 185.283 264.845 185.453 265.189C185.626 265.53 185.866 265.79 186.173 265.969C186.48 266.145 186.837 266.233 187.243 266.233C187.507 266.233 187.746 266.196 187.959 266.122C188.175 266.045 188.361 265.932 188.517 265.781C188.673 265.628 188.794 265.437 188.879 265.21L189.851 265.483C189.749 265.812 189.577 266.102 189.335 266.352C189.094 266.599 188.795 266.793 188.44 266.932C188.085 267.068 187.686 267.136 187.243 267.136ZM196.119 261.92L195.216 262.176C195.159 262.026 195.075 261.879 194.964 261.737C194.857 261.592 194.709 261.473 194.521 261.379C194.334 261.286 194.094 261.239 193.801 261.239C193.401 261.239 193.067 261.331 192.8 261.516C192.536 261.697 192.403 261.929 192.403 262.21C192.403 262.46 192.494 262.658 192.676 262.803C192.858 262.947 193.142 263.068 193.528 263.165L194.5 263.403C195.085 263.545 195.521 263.763 195.808 264.055C196.095 264.345 196.239 264.719 196.239 265.176C196.239 265.551 196.131 265.886 195.915 266.182C195.702 266.477 195.403 266.71 195.02 266.881C194.636 267.051 194.19 267.136 193.682 267.136C193.014 267.136 192.462 266.991 192.024 266.702C191.587 266.412 191.31 265.989 191.193 265.432L192.148 265.193C192.239 265.545 192.411 265.81 192.663 265.986C192.919 266.162 193.253 266.25 193.665 266.25C194.134 266.25 194.506 266.151 194.781 265.952C195.06 265.75 195.199 265.509 195.199 265.227C195.199 265 195.119 264.81 194.96 264.656C194.801 264.5 194.557 264.384 194.227 264.307L193.136 264.051C192.537 263.909 192.097 263.689 191.815 263.391C191.537 263.089 191.398 262.713 191.398 262.261C191.398 261.892 191.501 261.565 191.709 261.281C191.919 260.997 192.205 260.774 192.565 260.612C192.929 260.45 193.341 260.369 193.801 260.369C194.449 260.369 194.957 260.511 195.327 260.795C195.699 261.08 195.963 261.455 196.119 261.92ZM200.599 260.455V261.307H197.207V260.455H200.599ZM198.196 258.886H199.201V265.125C199.201 265.409 199.243 265.622 199.325 265.764C199.41 265.903 199.518 265.997 199.649 266.045C199.782 266.091 199.923 266.114 200.071 266.114C200.181 266.114 200.272 266.108 200.343 266.097C200.414 266.082 200.471 266.071 200.514 266.062L200.718 266.966C200.65 266.991 200.555 267.017 200.433 267.043C200.311 267.071 200.156 267.085 199.968 267.085C199.684 267.085 199.406 267.024 199.133 266.902C198.863 266.78 198.639 266.594 198.46 266.344C198.284 266.094 198.196 265.778 198.196 265.398V258.886ZM202.112 267V260.455H203.083V261.443H203.152C203.271 261.119 203.487 260.857 203.799 260.655C204.112 260.453 204.464 260.352 204.856 260.352C204.93 260.352 205.022 260.354 205.133 260.357C205.244 260.359 205.328 260.364 205.385 260.369V261.392C205.35 261.384 205.272 261.371 205.15 261.354C205.031 261.334 204.904 261.324 204.771 261.324C204.453 261.324 204.169 261.391 203.919 261.524C203.672 261.655 203.475 261.837 203.331 262.07C203.189 262.3 203.118 262.562 203.118 262.858V267H202.112ZM209.037 267.136C208.446 267.136 207.927 266.996 207.481 266.714C207.038 266.433 206.691 266.04 206.441 265.534C206.194 265.028 206.071 264.437 206.071 263.761C206.071 263.08 206.194 262.484 206.441 261.976C206.691 261.467 207.038 261.072 207.481 260.791C207.927 260.51 208.446 260.369 209.037 260.369C209.627 260.369 210.145 260.51 210.588 260.791C211.034 261.072 211.38 261.467 211.627 261.976C211.877 262.484 212.002 263.08 212.002 263.761C212.002 264.437 211.877 265.028 211.627 265.534C211.38 266.04 211.034 266.433 210.588 266.714C210.145 266.996 209.627 267.136 209.037 267.136ZM209.037 266.233C209.485 266.233 209.855 266.118 210.145 265.888C210.434 265.658 210.649 265.355 210.788 264.98C210.927 264.605 210.997 264.199 210.997 263.761C210.997 263.324 210.927 262.916 210.788 262.538C210.649 262.161 210.434 261.855 210.145 261.622C209.855 261.389 209.485 261.273 209.037 261.273C208.588 261.273 208.218 261.389 207.929 261.622C207.639 261.855 207.424 262.161 207.285 262.538C207.146 262.916 207.076 263.324 207.076 263.761C207.076 264.199 207.146 264.605 207.285 264.98C207.424 265.355 207.639 265.658 207.929 265.888C208.218 266.118 208.588 266.233 209.037 266.233Z" fill="black"/>
<path d="M242.415 267H241.307L244.511 258.273H245.602L248.807 267H247.699L245.091 259.653H245.023L242.415 267ZM242.824 263.591H247.29V264.528H242.824V263.591ZM250.03 267V260.455H251.001V261.477H251.087C251.223 261.128 251.443 260.857 251.747 260.663C252.051 260.467 252.416 260.369 252.842 260.369C253.274 260.369 253.634 260.467 253.92 260.663C254.21 260.857 254.436 261.128 254.598 261.477H254.666C254.834 261.139 255.085 260.871 255.42 260.672C255.756 260.47 256.158 260.369 256.626 260.369C257.212 260.369 257.69 260.553 258.062 260.919C258.435 261.283 258.621 261.849 258.621 262.619V267H257.615V262.619C257.615 262.136 257.483 261.791 257.219 261.584C256.955 261.376 256.643 261.273 256.286 261.273C255.825 261.273 255.469 261.412 255.216 261.69C254.963 261.966 254.837 262.315 254.837 262.739V267H253.814V262.517C253.814 262.145 253.693 261.845 253.452 261.618C253.21 261.388 252.899 261.273 252.518 261.273C252.257 261.273 252.013 261.342 251.786 261.482C251.561 261.621 251.379 261.814 251.24 262.061C251.104 262.305 251.036 262.588 251.036 262.909V267H250.03ZM262.386 267.153C261.971 267.153 261.594 267.075 261.256 266.919C260.918 266.76 260.65 266.531 260.451 266.233C260.252 265.932 260.153 265.568 260.153 265.142C260.153 264.767 260.227 264.463 260.374 264.23C260.522 263.994 260.719 263.81 260.967 263.676C261.214 263.543 261.487 263.443 261.785 263.378C262.086 263.31 262.388 263.256 262.692 263.216C263.09 263.165 263.413 263.126 263.66 263.101C263.91 263.072 264.092 263.026 264.205 262.96C264.322 262.895 264.38 262.781 264.38 262.619V262.585C264.38 262.165 264.265 261.838 264.035 261.605C263.808 261.372 263.462 261.256 262.999 261.256C262.519 261.256 262.143 261.361 261.87 261.571C261.597 261.781 261.406 262.006 261.295 262.244L260.34 261.903C260.511 261.506 260.738 261.196 261.022 260.974C261.309 260.75 261.621 260.594 261.96 260.506C262.3 260.415 262.636 260.369 262.965 260.369C263.175 260.369 263.417 260.395 263.69 260.446C263.965 260.494 264.231 260.595 264.487 260.749C264.745 260.902 264.96 261.134 265.13 261.443C265.3 261.753 265.386 262.168 265.386 262.688V267H264.38V266.114H264.329C264.261 266.256 264.147 266.408 263.988 266.57C263.829 266.732 263.617 266.869 263.353 266.983C263.089 267.097 262.766 267.153 262.386 267.153ZM262.539 266.25C262.937 266.25 263.272 266.172 263.545 266.016C263.82 265.859 264.028 265.658 264.167 265.411C264.309 265.163 264.38 264.903 264.38 264.631V263.71C264.337 263.761 264.244 263.808 264.099 263.851C263.957 263.891 263.792 263.926 263.604 263.957C263.42 263.986 263.239 264.011 263.063 264.034C262.89 264.054 262.749 264.071 262.641 264.085C262.38 264.119 262.136 264.175 261.908 264.251C261.684 264.325 261.502 264.437 261.363 264.588C261.227 264.736 261.158 264.937 261.158 265.193C261.158 265.543 261.288 265.807 261.546 265.986C261.808 266.162 262.138 266.25 262.539 266.25ZM267.221 267V260.455H268.193V261.443H268.261C268.38 261.119 268.596 260.857 268.909 260.655C269.221 260.453 269.574 260.352 269.966 260.352C270.039 260.352 270.132 260.354 270.243 260.357C270.353 260.359 270.437 260.364 270.494 260.369V261.392C270.46 261.384 270.382 261.371 270.26 261.354C270.14 261.334 270.014 261.324 269.88 261.324C269.562 261.324 269.278 261.391 269.028 261.524C268.781 261.655 268.585 261.837 268.44 262.07C268.298 262.3 268.227 262.562 268.227 262.858V267H267.221ZM274.72 259.21V258.273H281.266V259.21H278.521V267H277.464V259.21H274.72ZM284.555 267.136C283.925 267.136 283.381 266.997 282.923 266.719C282.469 266.438 282.118 266.045 281.871 265.543C281.626 265.037 281.504 264.449 281.504 263.778C281.504 263.108 281.626 262.517 281.871 262.006C282.118 261.491 282.462 261.091 282.902 260.804C283.345 260.514 283.862 260.369 284.453 260.369C284.794 260.369 285.131 260.426 285.463 260.54C285.795 260.653 286.098 260.838 286.371 261.094C286.643 261.347 286.861 261.682 287.023 262.099C287.185 262.517 287.266 263.031 287.266 263.642V264.068H282.22V263.199H286.243C286.243 262.83 286.169 262.5 286.021 262.21C285.876 261.92 285.669 261.692 285.399 261.524C285.132 261.357 284.817 261.273 284.453 261.273C284.053 261.273 283.706 261.372 283.413 261.571C283.124 261.767 282.901 262.023 282.744 262.338C282.588 262.653 282.51 262.991 282.51 263.352V263.932C282.51 264.426 282.595 264.845 282.766 265.189C282.939 265.53 283.179 265.79 283.486 265.969C283.793 266.145 284.149 266.233 284.555 266.233C284.82 266.233 285.058 266.196 285.271 266.122C285.487 266.045 285.673 265.932 285.83 265.781C285.986 265.628 286.107 265.437 286.192 265.21L287.163 265.483C287.061 265.812 286.889 266.102 286.648 266.352C286.406 266.599 286.108 266.793 285.753 266.932C285.398 267.068 284.999 267.136 284.555 267.136ZM291.455 267.136C290.841 267.136 290.313 266.991 289.869 266.702C289.426 266.412 289.085 266.013 288.847 265.504C288.608 264.996 288.489 264.415 288.489 263.761C288.489 263.097 288.611 262.51 288.855 262.001C289.102 261.49 289.446 261.091 289.886 260.804C290.33 260.514 290.847 260.369 291.438 260.369C291.898 260.369 292.312 260.455 292.682 260.625C293.051 260.795 293.354 261.034 293.589 261.341C293.825 261.648 293.972 262.006 294.028 262.415H293.023C292.946 262.116 292.776 261.852 292.511 261.622C292.25 261.389 291.898 261.273 291.455 261.273C291.063 261.273 290.719 261.375 290.423 261.58C290.131 261.781 289.902 262.067 289.737 262.436C289.575 262.803 289.494 263.233 289.494 263.727C289.494 264.233 289.574 264.673 289.733 265.048C289.895 265.423 290.122 265.714 290.415 265.922C290.71 266.129 291.057 266.233 291.455 266.233C291.716 266.233 291.953 266.188 292.166 266.097C292.379 266.006 292.56 265.875 292.707 265.705C292.855 265.534 292.96 265.33 293.023 265.091H294.028C293.972 265.477 293.831 265.825 293.607 266.135C293.385 266.442 293.091 266.686 292.724 266.868C292.361 267.047 291.938 267.136 291.455 267.136ZM296.504 263.062V267H295.499V258.273H296.504V261.477H296.589C296.743 261.139 296.973 260.871 297.28 260.672C297.589 260.47 298.001 260.369 298.516 260.369C298.962 260.369 299.352 260.459 299.688 260.638C300.023 260.814 300.283 261.085 300.467 261.452C300.655 261.815 300.749 262.278 300.749 262.841V267H299.743V262.909C299.743 262.389 299.608 261.987 299.338 261.703C299.071 261.416 298.7 261.273 298.226 261.273C297.896 261.273 297.601 261.342 297.339 261.482C297.081 261.621 296.876 261.824 296.726 262.091C296.578 262.358 296.504 262.682 296.504 263.062Z" fill="black"/>
<path d="M318.58 259.21V258.273H325.125V259.21H322.381V267H321.324V259.21H318.58ZM333.415 261H332.359C332.296 260.696 332.187 260.429 332.031 260.199C331.877 259.969 331.69 259.776 331.468 259.619C331.249 259.46 331.006 259.341 330.739 259.261C330.472 259.182 330.194 259.142 329.904 259.142C329.376 259.142 328.897 259.276 328.468 259.543C328.042 259.81 327.702 260.203 327.45 260.723C327.2 261.243 327.075 261.881 327.075 262.636C327.075 263.392 327.2 264.03 327.45 264.55C327.702 265.07 328.042 265.463 328.468 265.73C328.897 265.997 329.376 266.131 329.904 266.131C330.194 266.131 330.472 266.091 330.739 266.011C331.006 265.932 331.249 265.814 331.468 265.658C331.69 265.499 331.877 265.304 332.031 265.074C332.187 264.841 332.296 264.574 332.359 264.273H333.415C333.336 264.719 333.191 265.118 332.981 265.47C332.771 265.822 332.509 266.122 332.197 266.369C331.884 266.614 331.533 266.8 331.144 266.928C330.758 267.055 330.344 267.119 329.904 267.119C329.16 267.119 328.498 266.938 327.918 266.574C327.339 266.21 326.883 265.693 326.55 265.023C326.218 264.352 326.052 263.557 326.052 262.636C326.052 261.716 326.218 260.92 326.55 260.25C326.883 259.58 327.339 259.062 327.918 258.699C328.498 258.335 329.16 258.153 329.904 258.153C330.344 258.153 330.758 258.217 331.144 258.345C331.533 258.473 331.884 258.661 332.197 258.908C332.509 259.152 332.771 259.45 332.981 259.803C333.191 260.152 333.336 260.551 333.415 261ZM339.896 260.455C339.845 260.023 339.637 259.688 339.274 259.449C338.91 259.21 338.464 259.091 337.936 259.091C337.549 259.091 337.211 259.153 336.922 259.278C336.635 259.403 336.41 259.575 336.248 259.794C336.089 260.013 336.01 260.261 336.01 260.54C336.01 260.773 336.065 260.973 336.176 261.141C336.289 261.305 336.434 261.443 336.61 261.554C336.787 261.662 336.971 261.751 337.164 261.822C337.358 261.891 337.535 261.946 337.697 261.989L338.583 262.227C338.811 262.287 339.064 262.369 339.342 262.474C339.623 262.58 339.892 262.723 340.147 262.905C340.406 263.084 340.619 263.314 340.787 263.595C340.954 263.876 341.038 264.222 341.038 264.631C341.038 265.102 340.914 265.528 340.667 265.909C340.423 266.29 340.065 266.592 339.593 266.817C339.125 267.041 338.555 267.153 337.885 267.153C337.26 267.153 336.718 267.053 336.261 266.851C335.806 266.649 335.449 266.368 335.187 266.007C334.929 265.646 334.782 265.227 334.748 264.75H335.839C335.868 265.08 335.978 265.352 336.172 265.568C336.368 265.781 336.615 265.94 336.913 266.045C337.214 266.148 337.538 266.199 337.885 266.199C338.288 266.199 338.65 266.134 338.971 266.003C339.292 265.869 339.547 265.685 339.734 265.449C339.922 265.21 340.015 264.932 340.015 264.614C340.015 264.324 339.934 264.088 339.772 263.906C339.61 263.724 339.397 263.577 339.133 263.463C338.869 263.349 338.583 263.25 338.277 263.165L337.203 262.858C336.521 262.662 335.981 262.382 335.583 262.018C335.186 261.655 334.987 261.179 334.987 260.591C334.987 260.102 335.119 259.676 335.383 259.312C335.65 258.946 336.008 258.662 336.457 258.46C336.909 258.256 337.413 258.153 337.97 258.153C338.532 258.153 339.032 258.254 339.47 258.456C339.907 258.655 340.254 258.928 340.51 259.274C340.768 259.621 340.904 260.014 340.919 260.455H339.896ZM353.173 261H352.116C352.054 260.696 351.945 260.429 351.788 260.199C351.635 259.969 351.447 259.776 351.226 259.619C351.007 259.46 350.764 259.341 350.497 259.261C350.23 259.182 349.952 259.142 349.662 259.142C349.134 259.142 348.655 259.276 348.226 259.543C347.8 259.81 347.46 260.203 347.207 260.723C346.957 261.243 346.832 261.881 346.832 262.636C346.832 263.392 346.957 264.03 347.207 264.55C347.46 265.07 347.8 265.463 348.226 265.73C348.655 265.997 349.134 266.131 349.662 266.131C349.952 266.131 350.23 266.091 350.497 266.011C350.764 265.932 351.007 265.814 351.226 265.658C351.447 265.499 351.635 265.304 351.788 265.074C351.945 264.841 352.054 264.574 352.116 264.273H353.173C353.094 264.719 352.949 265.118 352.739 265.47C352.528 265.822 352.267 266.122 351.955 266.369C351.642 266.614 351.291 266.8 350.902 266.928C350.516 267.055 350.102 267.119 349.662 267.119C348.918 267.119 348.256 266.938 347.676 266.574C347.097 266.21 346.641 265.693 346.308 265.023C345.976 264.352 345.81 263.557 345.81 262.636C345.81 261.716 345.976 260.92 346.308 260.25C346.641 259.58 347.097 259.062 347.676 258.699C348.256 258.335 348.918 258.153 349.662 258.153C350.102 258.153 350.516 258.217 350.902 258.345C351.291 258.473 351.642 258.661 351.955 258.908C352.267 259.152 352.528 259.45 352.739 259.803C352.949 260.152 353.094 260.551 353.173 261ZM356.671 267.153C356.256 267.153 355.88 267.075 355.542 266.919C355.203 266.76 354.935 266.531 354.736 266.233C354.537 265.932 354.438 265.568 354.438 265.142C354.438 264.767 354.512 264.463 354.659 264.23C354.807 263.994 355.005 263.81 355.252 263.676C355.499 263.543 355.772 263.443 356.07 263.378C356.371 263.31 356.674 263.256 356.978 263.216C357.375 263.165 357.698 263.126 357.945 263.101C358.195 263.072 358.377 263.026 358.49 262.96C358.607 262.895 358.665 262.781 358.665 262.619V262.585C358.665 262.165 358.55 261.838 358.32 261.605C358.093 261.372 357.748 261.256 357.284 261.256C356.804 261.256 356.428 261.361 356.155 261.571C355.882 261.781 355.691 262.006 355.58 262.244L354.625 261.903C354.796 261.506 355.023 261.196 355.307 260.974C355.594 260.75 355.907 260.594 356.245 260.506C356.586 260.415 356.921 260.369 357.25 260.369C357.461 260.369 357.702 260.395 357.975 260.446C358.25 260.494 358.516 260.595 358.772 260.749C359.03 260.902 359.245 261.134 359.415 261.443C359.586 261.753 359.671 262.168 359.671 262.688V267H358.665V266.114H358.614C358.546 266.256 358.432 266.408 358.273 266.57C358.114 266.732 357.902 266.869 357.638 266.983C357.374 267.097 357.051 267.153 356.671 267.153ZM356.824 266.25C357.222 266.25 357.557 266.172 357.83 266.016C358.105 265.859 358.313 265.658 358.452 265.411C358.594 265.163 358.665 264.903 358.665 264.631V263.71C358.623 263.761 358.529 263.808 358.384 263.851C358.242 263.891 358.077 263.926 357.89 263.957C357.705 263.986 357.525 264.011 357.348 264.034C357.175 264.054 357.034 264.071 356.926 264.085C356.665 264.119 356.421 264.175 356.194 264.251C355.969 264.325 355.787 264.437 355.648 264.588C355.512 264.736 355.444 264.937 355.444 265.193C355.444 265.543 355.573 265.807 355.831 265.986C356.093 266.162 356.424 266.25 356.824 266.25ZM361.506 269.455V260.455H362.478V261.494H362.597C362.671 261.381 362.773 261.236 362.904 261.06C363.038 260.881 363.228 260.722 363.475 260.582C363.725 260.44 364.063 260.369 364.489 260.369C365.04 260.369 365.526 260.507 365.947 260.783C366.367 261.058 366.695 261.449 366.931 261.955C367.167 262.46 367.285 263.057 367.285 263.744C367.285 264.438 367.167 265.038 366.931 265.547C366.695 266.053 366.369 266.445 365.951 266.723C365.533 266.999 365.052 267.136 364.506 267.136C364.086 267.136 363.749 267.067 363.496 266.928C363.244 266.786 363.049 266.625 362.913 266.446C362.776 266.264 362.671 266.114 362.597 265.994H362.512V269.455H361.506ZM362.495 263.727C362.495 264.222 362.567 264.658 362.712 265.036C362.857 265.411 363.069 265.705 363.347 265.918C363.626 266.128 363.967 266.233 364.37 266.233C364.79 266.233 365.141 266.122 365.423 265.901C365.707 265.676 365.92 265.375 366.062 264.997C366.207 264.616 366.279 264.193 366.279 263.727C366.279 263.267 366.208 262.852 366.066 262.483C365.927 262.111 365.715 261.817 365.431 261.601C365.15 261.382 364.796 261.273 364.37 261.273C363.961 261.273 363.617 261.376 363.339 261.584C363.06 261.788 362.85 262.075 362.708 262.445C362.566 262.811 362.495 263.239 362.495 263.727ZM368.819 267V260.455H369.79V261.477H369.876C370.012 261.128 370.232 260.857 370.536 260.663C370.84 260.467 371.205 260.369 371.631 260.369C372.063 260.369 372.423 260.467 372.71 260.663C372.999 260.857 373.225 261.128 373.387 261.477H373.455C373.623 261.139 373.874 260.871 374.21 260.672C374.545 260.47 374.947 260.369 375.415 260.369C376.001 260.369 376.479 260.553 376.852 260.919C377.224 261.283 377.41 261.849 377.41 262.619V267H376.404V262.619C376.404 262.136 376.272 261.791 376.008 261.584C375.744 261.376 375.433 261.273 375.075 261.273C374.614 261.273 374.258 261.412 374.005 261.69C373.752 261.966 373.626 262.315 373.626 262.739V267H372.603V262.517C372.603 262.145 372.482 261.845 372.241 261.618C371.999 261.388 371.688 261.273 371.308 261.273C371.046 261.273 370.802 261.342 370.575 261.482C370.35 261.621 370.168 261.814 370.029 262.061C369.893 262.305 369.825 262.588 369.825 262.909V267H368.819ZM383.374 264.324V260.455H384.379V267H383.374V265.892H383.305C383.152 266.224 382.913 266.507 382.589 266.74C382.266 266.97 381.857 267.085 381.362 267.085C380.953 267.085 380.589 266.996 380.271 266.817C379.953 266.635 379.703 266.362 379.521 265.999C379.339 265.632 379.249 265.17 379.249 264.614V260.455H380.254V264.545C380.254 265.023 380.388 265.403 380.655 265.688C380.925 265.972 381.268 266.114 381.686 266.114C381.936 266.114 382.19 266.05 382.449 265.922C382.71 265.794 382.929 265.598 383.105 265.334C383.284 265.07 383.374 264.733 383.374 264.324ZM390.858 261.92L389.954 262.176C389.897 262.026 389.814 261.879 389.703 261.737C389.595 261.592 389.447 261.473 389.26 261.379C389.072 261.286 388.832 261.239 388.539 261.239C388.139 261.239 387.805 261.331 387.538 261.516C387.274 261.697 387.142 261.929 387.142 262.21C387.142 262.46 387.233 262.658 387.414 262.803C387.596 262.947 387.88 263.068 388.267 263.165L389.238 263.403C389.824 263.545 390.26 263.763 390.547 264.055C390.833 264.345 390.977 264.719 390.977 265.176C390.977 265.551 390.869 265.886 390.653 266.182C390.44 266.477 390.142 266.71 389.758 266.881C389.375 267.051 388.929 267.136 388.42 267.136C387.752 267.136 387.2 266.991 386.762 266.702C386.325 266.412 386.048 265.989 385.931 265.432L386.886 265.193C386.977 265.545 387.149 265.81 387.402 265.986C387.657 266.162 387.991 266.25 388.403 266.25C388.872 266.25 389.244 266.151 389.52 265.952C389.798 265.75 389.937 265.509 389.937 265.227C389.937 265 389.858 264.81 389.699 264.656C389.539 264.5 389.295 264.384 388.966 264.307L387.875 264.051C387.275 263.909 386.835 263.689 386.554 263.391C386.275 263.089 386.136 262.713 386.136 262.261C386.136 261.892 386.24 261.565 386.447 261.281C386.657 260.997 386.943 260.774 387.304 260.612C387.667 260.45 388.079 260.369 388.539 260.369C389.187 260.369 389.696 260.511 390.065 260.795C390.437 261.08 390.701 261.455 390.858 261.92Z" fill="black"/>
<path d="M415.057 267V258.273H418.108C418.716 258.273 419.217 258.378 419.612 258.588C420.007 258.795 420.301 259.075 420.494 259.428C420.688 259.777 420.784 260.165 420.784 260.591C420.784 260.966 420.717 261.276 420.584 261.52C420.453 261.764 420.28 261.957 420.064 262.099C419.851 262.241 419.619 262.347 419.369 262.415V262.5C419.636 262.517 419.905 262.611 420.175 262.781C420.445 262.952 420.67 263.196 420.852 263.514C421.034 263.832 421.125 264.222 421.125 264.682C421.125 265.119 421.026 265.513 420.827 265.862C420.628 266.212 420.314 266.489 419.885 266.693C419.456 266.898 418.898 267 418.21 267H415.057ZM416.114 266.062H418.21C418.901 266.062 419.391 265.929 419.68 265.662C419.973 265.392 420.119 265.065 420.119 264.682C420.119 264.386 420.044 264.114 419.893 263.864C419.743 263.611 419.528 263.409 419.25 263.259C418.972 263.105 418.642 263.028 418.261 263.028H416.114V266.062ZM416.114 262.108H418.074C418.392 262.108 418.679 262.045 418.935 261.92C419.193 261.795 419.398 261.619 419.548 261.392C419.702 261.165 419.778 260.898 419.778 260.591C419.778 260.207 419.645 259.882 419.378 259.615C419.111 259.345 418.688 259.21 418.108 259.21H416.114V262.108ZM426.85 264.324V260.455H427.856V267H426.85V265.892H426.782C426.629 266.224 426.39 266.507 426.066 266.74C425.742 266.97 425.333 267.085 424.839 267.085C424.43 267.085 424.066 266.996 423.748 266.817C423.43 266.635 423.18 266.362 422.998 265.999C422.816 265.632 422.725 265.17 422.725 264.614V260.455H423.731V264.545C423.731 265.023 423.864 265.403 424.131 265.688C424.401 265.972 424.745 266.114 425.163 266.114C425.413 266.114 425.667 266.05 425.925 265.922C426.187 265.794 426.406 265.598 426.582 265.334C426.761 265.07 426.85 264.733 426.85 264.324ZM434.334 261.92L433.431 262.176C433.374 262.026 433.29 261.879 433.179 261.737C433.071 261.592 432.924 261.473 432.736 261.379C432.549 261.286 432.309 261.239 432.016 261.239C431.615 261.239 431.282 261.331 431.015 261.516C430.75 261.697 430.618 261.929 430.618 262.21C430.618 262.46 430.709 262.658 430.891 262.803C431.073 262.947 431.357 263.068 431.743 263.165L432.715 263.403C433.3 263.545 433.736 263.763 434.023 264.055C434.31 264.345 434.453 264.719 434.453 265.176C434.453 265.551 434.346 265.886 434.13 266.182C433.917 266.477 433.618 266.71 433.235 266.881C432.851 267.051 432.405 267.136 431.897 267.136C431.229 267.136 430.676 266.991 430.239 266.702C429.801 266.412 429.525 265.989 429.408 265.432L430.363 265.193C430.453 265.545 430.625 265.81 430.878 265.986C431.134 266.162 431.468 266.25 431.88 266.25C432.348 266.25 432.721 266.151 432.996 265.952C433.275 265.75 433.414 265.509 433.414 265.227C433.414 265 433.334 264.81 433.175 264.656C433.016 264.5 432.772 264.384 432.442 264.307L431.351 264.051C430.752 263.909 430.311 263.689 430.03 263.391C429.752 263.089 429.613 262.713 429.613 262.261C429.613 261.892 429.716 261.565 429.924 261.281C430.134 260.997 430.419 260.774 430.78 260.612C431.144 260.45 431.556 260.369 432.016 260.369C432.664 260.369 433.172 260.511 433.542 260.795C433.914 261.08 434.178 261.455 434.334 261.92ZM444.251 260.455C444.2 260.023 443.993 259.688 443.629 259.449C443.266 259.21 442.82 259.091 442.291 259.091C441.905 259.091 441.567 259.153 441.277 259.278C440.99 259.403 440.766 259.575 440.604 259.794C440.445 260.013 440.365 260.261 440.365 260.54C440.365 260.773 440.42 260.973 440.531 261.141C440.645 261.305 440.79 261.443 440.966 261.554C441.142 261.662 441.327 261.751 441.52 261.822C441.713 261.891 441.891 261.946 442.053 261.989L442.939 262.227C443.166 262.287 443.419 262.369 443.697 262.474C443.979 262.58 444.247 262.723 444.503 262.905C444.761 263.084 444.974 263.314 445.142 263.595C445.31 263.876 445.393 264.222 445.393 264.631C445.393 265.102 445.27 265.528 445.023 265.909C444.778 266.29 444.42 266.592 443.949 266.817C443.48 267.041 442.911 267.153 442.24 267.153C441.615 267.153 441.074 267.053 440.616 266.851C440.162 266.649 439.804 266.368 439.543 266.007C439.284 265.646 439.138 265.227 439.104 264.75H440.195C440.223 265.08 440.334 265.352 440.527 265.568C440.723 265.781 440.97 265.94 441.268 266.045C441.57 266.148 441.893 266.199 442.24 266.199C442.643 266.199 443.006 266.134 443.327 266.003C443.648 265.869 443.902 265.685 444.089 265.449C444.277 265.21 444.371 264.932 444.371 264.614C444.371 264.324 444.29 264.088 444.128 263.906C443.966 263.724 443.753 263.577 443.489 263.463C443.224 263.349 442.939 263.25 442.632 263.165L441.558 262.858C440.876 262.662 440.337 262.382 439.939 262.018C439.541 261.655 439.342 261.179 439.342 260.591C439.342 260.102 439.474 259.676 439.739 259.312C440.006 258.946 440.364 258.662 440.812 258.46C441.264 258.256 441.768 258.153 442.325 258.153C442.888 258.153 443.388 258.254 443.825 258.456C444.263 258.655 444.609 258.928 444.865 259.274C445.124 259.621 445.26 260.014 445.274 260.455H444.251ZM449.841 260.455V261.307H446.449V260.455H449.841ZM447.438 258.886H448.444V265.125C448.444 265.409 448.485 265.622 448.567 265.764C448.652 265.903 448.76 265.997 448.891 266.045C449.025 266.091 449.165 266.114 449.313 266.114C449.424 266.114 449.515 266.108 449.586 266.097C449.657 266.082 449.713 266.071 449.756 266.062L449.961 266.966C449.892 266.991 449.797 267.017 449.675 267.043C449.553 267.071 449.398 267.085 449.211 267.085C448.926 267.085 448.648 267.024 448.375 266.902C448.105 266.78 447.881 266.594 447.702 266.344C447.526 266.094 447.438 265.778 447.438 265.398V258.886ZM453.28 267.153C452.865 267.153 452.489 267.075 452.151 266.919C451.813 266.76 451.544 266.531 451.346 266.233C451.147 265.932 451.047 265.568 451.047 265.142C451.047 264.767 451.121 264.463 451.269 264.23C451.417 263.994 451.614 263.81 451.861 263.676C452.108 263.543 452.381 263.443 452.679 263.378C452.98 263.31 453.283 263.256 453.587 263.216C453.985 263.165 454.307 263.126 454.554 263.101C454.804 263.072 454.986 263.026 455.1 262.96C455.216 262.895 455.275 262.781 455.275 262.619V262.585C455.275 262.165 455.159 261.838 454.929 261.605C454.702 261.372 454.357 261.256 453.894 261.256C453.414 261.256 453.037 261.361 452.765 261.571C452.492 261.781 452.3 262.006 452.189 262.244L451.235 261.903C451.405 261.506 451.632 261.196 451.917 260.974C452.203 260.75 452.516 260.594 452.854 260.506C453.195 260.415 453.53 260.369 453.86 260.369C454.07 260.369 454.311 260.395 454.584 260.446C454.86 260.494 455.125 260.595 455.381 260.749C455.64 260.902 455.854 261.134 456.025 261.443C456.195 261.753 456.28 262.168 456.28 262.688V267H455.275V266.114H455.223C455.155 266.256 455.042 266.408 454.882 266.57C454.723 266.732 454.512 266.869 454.248 266.983C453.983 267.097 453.661 267.153 453.28 267.153ZM453.434 266.25C453.831 266.25 454.167 266.172 454.439 266.016C454.715 265.859 454.922 265.658 455.061 265.411C455.203 265.163 455.275 264.903 455.275 264.631V263.71C455.232 263.761 455.138 263.808 454.993 263.851C454.851 263.891 454.686 263.926 454.499 263.957C454.314 263.986 454.134 264.011 453.958 264.034C453.784 264.054 453.644 264.071 453.536 264.085C453.275 264.119 453.03 264.175 452.803 264.251C452.578 264.325 452.397 264.437 452.257 264.588C452.121 264.736 452.053 264.937 452.053 265.193C452.053 265.543 452.182 265.807 452.441 265.986C452.702 266.162 453.033 266.25 453.434 266.25ZM459.121 263.062V267H458.116V260.455H459.087V261.477H459.173C459.326 261.145 459.559 260.878 459.871 260.676C460.184 260.472 460.587 260.369 461.082 260.369C461.525 260.369 461.913 260.46 462.245 260.642C462.577 260.821 462.836 261.094 463.021 261.46C463.205 261.824 463.298 262.284 463.298 262.841V267H462.292V262.909C462.292 262.395 462.158 261.994 461.891 261.707C461.624 261.418 461.258 261.273 460.792 261.273C460.471 261.273 460.184 261.342 459.931 261.482C459.681 261.621 459.484 261.824 459.339 262.091C459.194 262.358 459.121 262.682 459.121 263.062ZM467.607 267.136C467.061 267.136 466.58 266.999 466.162 266.723C465.745 266.445 465.418 266.053 465.182 265.547C464.946 265.038 464.828 264.438 464.828 263.744C464.828 263.057 464.946 262.46 465.182 261.955C465.418 261.449 465.746 261.058 466.167 260.783C466.587 260.507 467.073 260.369 467.624 260.369C468.05 260.369 468.387 260.44 468.634 260.582C468.884 260.722 469.074 260.881 469.205 261.06C469.338 261.236 469.442 261.381 469.516 261.494H469.601V258.273H470.607V267H469.635V265.994H469.516C469.442 266.114 469.337 266.264 469.201 266.446C469.064 266.625 468.87 266.786 468.617 266.928C468.364 267.067 468.027 267.136 467.607 267.136ZM467.743 266.233C468.147 266.233 468.488 266.128 468.766 265.918C469.044 265.705 469.256 265.411 469.401 265.036C469.546 264.658 469.618 264.222 469.618 263.727C469.618 263.239 469.547 262.811 469.405 262.445C469.263 262.075 469.053 261.788 468.775 261.584C468.496 261.376 468.152 261.273 467.743 261.273C467.317 261.273 466.962 261.382 466.678 261.601C466.397 261.817 466.185 262.111 466.043 262.483C465.904 262.852 465.834 263.267 465.834 263.727C465.834 264.193 465.905 264.616 466.047 264.997C466.192 265.375 466.405 265.676 466.686 265.901C466.971 266.122 467.323 266.233 467.743 266.233Z" fill="black"/>
<defs>
<linearGradient id="paint0_linear_223_135" x1="76.0833" y1="144" x2="126.244" y2="144" gradientUnits="userSpaceOnUse">
<stop stop-color="#2DD99F"/>
<stop offset="1" stop-color="#D3F885"/>
</linearGradient>
<linearGradient id="paint1_linear_223_135" x1="162.083" y1="176" x2="212.244" y2="176" gradientUnits="userSpaceOnUse">
<stop stop-color="#2DD99F"/>
<stop offset="1" stop-color="#D3F885"/>
</linearGradient>
<linearGradient id="paint2_linear_223_135" x1="248.083" y1="144" x2="298.244" y2="144" gradientUnits="userSpaceOnUse">
<stop stop-color="#2DD99F"/>
<stop offset="1" stop-color="#D3F885"/>
</linearGradient>
<linearGradient id="paint3_linear_223_135" x1="334.083" y1="176" x2="384.244" y2="176" gradientUnits="userSpaceOnUse">
<stop stop-color="#2DD99F"/>
<stop offset="1" stop-color="#D3F885"/>
</linearGradient>
<linearGradient id="paint4_linear_223_135" x1="420.083" y1="176" x2="470.244" y2="176" gradientUnits="userSpaceOnUse">
<stop stop-color="#2DD99F"/>
<stop offset="1" stop-color="#D3F885"/>
</linearGradient>
</defs>
</svg>
