<svg width="19" height="20" viewBox="0 0 19 20" fill="none" xmlns="http://www.w3.org/2000/svg">
<path d="M0 1.75C0 1.38533 0.125111 1.03559 0.347811 0.777728C0.57051 0.519866 0.872555 0.375 1.1875 0.375H17.8125C18.1274 0.375 18.4295 0.519866 18.6522 0.777728C18.8749 1.03559 19 1.38533 19 1.75V18.25C19 18.6147 18.8749 18.9644 18.6522 19.2223C18.4295 19.4801 18.1274 19.625 17.8125 19.625H1.1875C0.872555 19.625 0.57051 19.4801 0.347811 19.2223C0.125111 18.9644 0 18.6147 0 18.25V1.75ZM10.0938 1.75V12.75H17.8125V1.75H10.0938ZM10.0938 14.125V18.25H17.8125V14.125H10.0938ZM8.90625 1.75H1.1875V5.875H8.90625V1.75ZM1.1875 18.25H8.90625V7.25H1.1875V18.25Z" fill="#6B5799"/>
</svg>
