<svg width="20" height="20" viewBox="0 0 20 20" fill="none" xmlns="http://www.w3.org/2000/svg">
<path fill-rule="evenodd" clip-rule="evenodd" d="M17.1875 4.47729H3.75C3.50136 4.47729 3.2629 4.57607 3.08709 4.75188C2.91127 4.9277 2.8125 5.16615 2.8125 5.41479V7.28979H17.1875V4.47729Z" fill="#C4C4C4"/>
<path fill-rule="evenodd" clip-rule="evenodd" d="M17.1875 3.94995C17.1875 3.70131 17.0887 3.46285 16.9129 3.28704C16.7371 3.11122 16.4986 3.01245 16.25 3.01245H11.3503C11.13 3.01244 10.9135 3.07067 10.7229 3.18125C10.5323 3.29183 10.3743 3.45083 10.265 3.64214L9.375 5.19995H17.1875V3.94995Z" fill="#C4C4C4"/>
<path fill-rule="evenodd" clip-rule="evenodd" d="M2.8125 5.35571H17.1875V5.9379H2.8125V5.35571Z" fill="#606060"/>
<path fill-rule="evenodd" clip-rule="evenodd" d="M18.24 7.15974C18.2645 6.98275 18.2508 6.80257 18.1999 6.63133C18.1489 6.46009 18.0618 6.30175 17.9445 6.167C17.8272 6.03224 17.6823 5.92418 17.5197 5.8501C17.3571 5.77602 17.1806 5.73765 17.0019 5.73755H2.99815C2.81945 5.73754 2.64282 5.77585 2.48018 5.8499C2.31754 5.92394 2.17266 6.032 2.05532 6.16678C1.93799 6.30156 1.85091 6.45994 1.79997 6.63123C1.74903 6.80252 1.73541 6.98274 1.76002 7.15974L2.97534 15.9097C3.0169 16.2086 3.16513 16.4823 3.39268 16.6804C3.62024 16.8785 3.91176 16.9876 4.21346 16.9875H15.7866C16.0883 16.9876 16.3798 16.8785 16.6074 16.6804C16.8349 16.4823 16.9832 16.2086 17.0247 15.9097L18.24 7.15974Z" fill="#C5C5C5"/>
<path fill-rule="evenodd" clip-rule="evenodd" d="M1.86502 7.91599C1.89302 7.60505 2.03627 7.31582 2.26664 7.10512C2.497 6.89441 2.79783 6.77746 3.11002 6.77724H16.89C17.2023 6.77717 17.5033 6.89403 17.7337 7.10479C17.9641 7.31555 18.1073 7.60494 18.135 7.91599L18.24 7.15974C18.2645 6.98275 18.2508 6.80257 18.1999 6.63133C18.1489 6.46009 18.0618 6.30175 17.9445 6.167C17.8272 6.03224 17.6823 5.92418 17.5197 5.8501C17.3571 5.77602 17.1806 5.73765 17.0019 5.73755H2.99815C2.81945 5.73754 2.64282 5.77585 2.48018 5.8499C2.31754 5.92394 2.17266 6.032 2.05532 6.16678C1.93799 6.30156 1.85091 6.45994 1.79997 6.63123C1.74903 6.80252 1.73541 6.98274 1.76002 7.15974L1.86502 7.91599Z" fill="#EDEDED"/>
<path fill-rule="evenodd" clip-rule="evenodd" d="M8.59405 13.8706C8.59405 13.7049 8.52821 13.5459 8.411 13.4287C8.29379 13.3115 8.13482 13.2456 7.96905 13.2456H5.46905C5.30329 13.2456 5.14432 13.3115 5.02711 13.4287C4.9099 13.5459 4.84406 13.7049 4.84406 13.8706V14.4956C4.84406 14.6614 4.9099 14.8204 5.02711 14.9376C5.14432 15.0548 5.30329 15.1206 5.46905 15.1206H7.96905C8.13482 15.1206 8.29379 15.0548 8.411 14.9376C8.52821 14.8204 8.59405 14.6614 8.59405 14.4956V13.8706ZM13.2812 8C11.4703 8 9.99999 9.47031 9.99999 11.2812C9.99999 13.0922 11.4703 14.5625 13.2812 14.5625C15.0922 14.5625 16.5625 13.0922 16.5625 11.2812C16.5625 9.47031 15.0922 8 13.2812 8ZM13.2812 8.9375C14.5747 8.9375 15.625 9.98781 15.625 11.2812C15.625 12.5747 14.5747 13.625 13.2812 13.625C12.6597 13.6247 12.0638 13.3776 11.6243 12.9382C11.1849 12.4987 10.9378 11.9027 10.9375 11.2812C10.9375 9.98781 11.9878 8.9375 13.2812 8.9375Z" fill="#1E1E1E"/>
<path fill-rule="evenodd" clip-rule="evenodd" d="M14.9903 13.5472L17.9053 16.4622C17.9932 16.5501 18.1125 16.5996 18.2368 16.5996C18.3611 16.5996 18.4804 16.5503 18.5683 16.4624C18.6562 16.3745 18.7057 16.2552 18.7057 16.1309C18.7057 16.0066 18.6563 15.8873 18.5685 15.7994L15.6535 12.8844C15.5646 12.8014 15.4469 12.7561 15.3253 12.7581C15.2037 12.7602 15.0876 12.8094 15.0016 12.8954C14.9156 12.9814 14.8663 13.0974 14.8642 13.219C14.8621 13.3406 14.9073 13.4583 14.9903 13.5472Z" fill="#1E1E1E"/>
</svg>
 
 
 
 