<svg width="12" height="13" viewBox="0 0 12 13" fill="none" xmlns="http://www.w3.org/2000/svg">
<path d="M6 5.5C7.10457 5.5 8 4.60457 8 3.5C8 2.39543 7.10457 1.5 6 1.5C4.89543 1.5 4 2.39543 4 3.5C4 4.60457 4.89543 5.5 6 5.5Z" fill="#4F4F4F" stroke="#4F4F4F" stroke-linecap="round" stroke-linejoin="round"/>
<path d="M2 11.1571V11.5H10V11.1571C10 9.87703 10 9.23697 9.76749 8.74803C9.56296 8.31794 9.23659 7.96826 8.83517 7.74911C8.37883 7.5 7.78144 7.5 6.58667 7.5H5.41333C4.21856 7.5 3.62117 7.5 3.16482 7.74911C2.76341 7.96826 2.43705 8.31794 2.23252 8.74803C2 9.23697 2 9.87703 2 11.1571Z" fill="#4F4F4F" stroke="#4F4F4F" stroke-linecap="round" stroke-linejoin="round"/>
</svg>
