<svg width="37" height="37" viewBox="0 0 37 37" fill="none" xmlns="http://www.w3.org/2000/svg">
<circle opacity="0.1" cx="18.5" cy="18.5" r="18.5" fill="#FFB82F"/>
<path d="M23.9999 14H21.7899C21.5973 13.2718 21.2569 12.591 20.7899 12H23.9999C24.2651 12 24.5195 11.8946 24.707 11.7071C24.8946 11.5196 24.9999 11.2652 24.9999 11C24.9999 10.7348 24.8946 10.4804 24.707 10.2929C24.5195 10.1054 24.2651 10 23.9999 10H12.9999C12.7347 10 12.4804 10.1054 12.2928 10.2929C12.1053 10.4804 11.9999 10.7348 11.9999 11C11.9999 11.2652 12.1053 11.5196 12.2928 11.7071C12.4804 11.8946 12.7347 12 12.9999 12H16.4999C17.1602 12.0023 17.8063 12.1913 18.3637 12.5452C18.9211 12.8991 19.367 13.4035 19.6499 14H12.9999C12.7347 14 12.4804 14.1054 12.2928 14.2929C12.1053 14.4804 11.9999 14.7348 11.9999 15C11.9999 15.2652 12.1053 15.5196 12.2928 15.7071C12.4804 15.8946 12.7347 16 12.9999 16H19.9999C19.88 16.8306 19.4657 17.5905 18.8324 18.1411C18.1992 18.6918 17.3891 18.9966 16.5499 19H12.9999C12.9534 18.9953 12.9065 18.9953 12.8599 19C12.7937 18.9897 12.7262 18.9897 12.6599 19C12.5918 19.0232 12.5277 19.057 12.4699 19.1L12.3499 19.17C12.2951 19.2195 12.248 19.2768 12.2099 19.34C12.1764 19.3843 12.1463 19.4311 12.1199 19.48C12.111 19.5397 12.111 19.6003 12.1199 19.66C12.0487 19.7597 12.0071 19.8776 11.9999 20C11.9952 20.0465 11.9952 20.0935 11.9999 20.14C11.9896 20.2063 11.9896 20.2737 11.9999 20.34C12.0231 20.4082 12.0569 20.4723 12.0999 20.53C12.0999 20.53 12.0999 20.61 12.1699 20.65L18.1699 27.65C18.3423 27.8516 18.5877 27.9764 18.8521 27.997C19.1166 28.0177 19.3784 27.9324 19.5799 27.76C19.7815 27.5876 19.9063 27.3422 19.9269 27.0778C19.9476 26.8134 19.8623 26.5516 19.6899 26.35L15.1799 21H16.4999C17.876 21.0057 19.2042 20.4954 20.2224 19.5697C21.2406 18.6441 21.8748 17.3704 21.9999 16H23.9999C24.2651 16 24.5195 15.8946 24.707 15.7071C24.8946 15.5196 24.9999 15.2652 24.9999 15C24.9999 14.7348 24.8946 14.4804 24.707 14.2929C24.5195 14.1054 24.2651 14 23.9999 14Z" fill="#FFB82F"/>
</svg>
