<svg width="113" height="17" viewBox="0 0 113 17" fill="none" xmlns="http://www.w3.org/2000/svg">
<path d="M8.02273 0.65826C8.22775 0.0175585 9.12039 0.0175597 9.3254 0.658261L10.9036 5.59034C10.9953 5.87687 11.2582 6.07087 11.5549 6.07087H16.662C17.3254 6.07087 17.6012 6.93293 17.0645 7.3289L12.9328 10.3771C12.6928 10.5542 12.5923 10.8681 12.684 11.1546L14.2622 16.0867C14.4672 16.7274 13.745 17.2602 13.2083 16.8642L9.07661 13.816C8.83658 13.6389 8.51155 13.6389 8.27152 13.816L4.13982 16.8642C3.60309 17.2602 2.88093 16.7274 3.08594 16.0867L4.66411 11.1546C4.75579 10.8681 4.65535 10.5542 4.41532 10.3771L0.283618 7.3289C-0.253109 6.93293 0.0227334 6.07087 0.686165 6.07087H5.79323C6.08993 6.07087 6.35288 5.87687 6.44456 5.59034L8.02273 0.65826Z" fill="#FFB82F"/>
<path d="M31.6792 0.65826C31.8842 0.0175585 32.7769 0.0175597 32.9819 0.658261L34.5601 5.59034C34.6517 5.87687 34.9147 6.07087 35.2114 6.07087H40.3185C40.9819 6.07087 41.2577 6.93293 40.721 7.3289L36.5893 10.3771C36.3493 10.5542 36.2488 10.8681 36.3405 11.1546L37.9187 16.0867C38.1237 16.7274 37.4015 17.2602 36.8648 16.8642L32.7331 13.816C32.4931 13.6389 32.168 13.6389 31.928 13.816L27.7963 16.8642C27.2596 17.2602 26.5374 16.7274 26.7424 16.0867L28.3206 11.1546C28.4123 10.8681 28.3118 10.5542 28.0718 10.3771L23.9401 7.3289C23.4034 6.93293 23.6792 6.07087 24.3427 6.07087H29.4497C29.7464 6.07087 30.0094 5.87687 30.1011 5.59034L31.6792 0.65826Z" fill="#FFB82F"/>
<path d="M55.336 0.65826C55.541 0.0175585 56.4336 0.0175597 56.6386 0.658261L58.2168 5.59034C58.3085 5.87687 58.5714 6.07087 58.8681 6.07087H63.9752C64.6386 6.07087 64.9145 6.93293 64.3777 7.3289L60.246 10.3771C60.006 10.5542 59.9056 10.8681 59.9973 11.1546L61.5754 16.0867C61.7804 16.7274 61.0583 17.2602 60.5215 16.8642L56.3898 13.816C56.1498 13.6389 55.8248 13.6389 55.5848 13.816L51.453 16.8642C50.9163 17.2602 50.1942 16.7274 50.3992 16.0867L51.9773 11.1546C52.069 10.8681 51.9686 10.5542 51.7286 10.3771L47.5969 7.3289C47.0601 6.93293 47.336 6.07087 47.9994 6.07087H53.1065C53.4032 6.07087 53.6661 5.87687 53.7578 5.59034L55.336 0.65826Z" fill="#FFB82F"/>
<path d="M79.2353 0.65826C79.4466 0.0175585 80.3662 0.0175597 80.5775 0.658261L82.2035 5.59034C82.2979 5.87687 82.5688 6.07087 82.8745 6.07087H88.1364C88.8199 6.07087 89.1041 6.93293 88.5511 7.3289L84.2942 10.3771C84.0469 10.5542 83.9434 10.8681 84.0379 11.1546L85.6639 16.0867C85.8751 16.7274 85.131 17.2602 84.578 16.8642L80.3211 13.816C80.0738 13.6389 79.739 13.6389 79.4917 13.816L75.2347 16.8642C74.6818 17.2602 73.9377 16.7274 74.1489 16.0867L75.7749 11.1546C75.8694 10.8681 75.7659 10.5542 75.5186 10.3771L71.2617 7.3289C70.7087 6.93293 70.9929 6.07087 71.6764 6.07087H76.9383C77.244 6.07087 77.5149 5.87687 77.6093 5.59034L79.2353 0.65826Z" fill="#D9D9D9"/>
<path d="M103.175 0.65826C103.38 0.0175585 104.272 0.0175597 104.477 0.658261L106.055 5.59034C106.147 5.87687 106.41 6.07087 106.707 6.07087H111.814C112.477 6.07087 112.753 6.93293 112.216 7.3289L108.085 10.3771C107.845 10.5542 107.744 10.8681 107.836 11.1546L109.414 16.0867C109.619 16.7274 108.897 17.2602 108.36 16.8642L104.228 13.816C103.988 13.6389 103.663 13.6389 103.423 13.816L99.2917 16.8642C98.7549 17.2602 98.0328 16.7274 98.2378 16.0867L99.816 11.1546C99.9076 10.8681 99.8072 10.5542 99.5672 10.3771L95.4355 7.3289C94.8987 6.93293 95.1746 6.07087 95.838 6.07087H100.945C101.242 6.07087 101.505 5.87687 101.596 5.59034L103.175 0.65826Z" fill="#D9D9D9"/>
</svg>
