<svg width="37" height="37" viewBox="0 0 37 37" fill="none" xmlns="http://www.w3.org/2000/svg">
<circle opacity="0.1" cx="18.5" cy="18.5" r="18.5" fill="#FFB82F"/>
<path d="M18 17C19.933 17 21.5 15.433 21.5 13.5C21.5 11.567 19.933 10 18 10C16.067 10 14.5 11.567 14.5 13.5C14.5 15.433 16.067 17 18 17Z" stroke="#FFB82F" stroke-width="1.5" stroke-linecap="round" stroke-linejoin="round"/>
<path d="M12 10.627C11.0932 11.2594 10.5 12.3102 10.5 13.4996C10.5 14.7728 11.1798 15.8872 12.1962 16.4996" stroke="#FFB82F" stroke-width="1.5" stroke-linecap="round" stroke-linejoin="round"/>
<path d="M24 10.627C24.9068 11.2594 25.5 12.3102 25.5 13.4996C25.5 14.689 24.9068 15.7398 24 16.3723" stroke="#FFB82F" stroke-width="1.5" stroke-linecap="round" stroke-linejoin="round"/>
<path d="M12 27V28H24V27C24 25.1363 24 24.2044 23.6955 23.4693C23.2895 22.4891 22.5109 21.7104 21.5308 21.3045C20.7957 21 19.8637 21 18 21C16.1363 21 15.2043 21 14.4692 21.3045C13.4891 21.7104 12.7105 22.4891 12.3045 23.4693C12 24.2044 12 25.1363 12 27Z" stroke="#FFB82F" stroke-width="1.5" stroke-linecap="round" stroke-linejoin="round"/>
<path d="M28 27.9995V27.3995C28 25.1593 28 24.0392 27.564 23.1836C27.1805 22.4309 26.5686 21.819 25.8159 21.4355" stroke="#FFB82F" stroke-width="1.5" stroke-linecap="round" stroke-linejoin="round"/>
<path d="M8 27.9995V27.3995C8 25.1593 8 24.0392 8.43597 23.1836C8.81946 22.4309 9.43139 21.819 10.184 21.4355" stroke="#FFB82F" stroke-width="1.5" stroke-linecap="round" stroke-linejoin="round"/>
</svg>
