<svg width="180" height="180" viewBox="0 0 180 180" fill="none" xmlns="http://www.w3.org/2000/svg">
<path opacity="0.4" d="M89.8333 179.667C139.446 179.667 179.667 139.447 179.667 89.8333C179.667 40.2197 139.446 0 89.8333 0C40.2197 0 0 40.2197 0 89.8333C0 139.447 40.2197 179.667 89.8333 179.667Z" fill="#292D32"/>
<path d="M89.8335 44.2871C71.238 44.2871 56.146 59.3791 56.146 77.9743C56.146 96.2104 70.4295 111.033 89.3843 111.572C89.6538 111.572 90.0132 111.572 90.1928 111.572C90.3725 111.572 90.642 111.572 90.8217 111.572C90.9115 111.572 91.0013 111.572 91.0013 111.572C109.148 110.943 123.431 96.2104 123.521 77.9743C123.521 59.3791 108.429 44.2871 89.8335 44.2871Z" fill="#D6D6D6"/>
<path d="M150.747 155.861C134.756 170.594 113.376 179.667 89.8396 179.667C66.3033 179.667 44.923 170.594 28.9326 155.861C31.0886 147.687 36.9278 140.23 45.462 134.481C69.9865 118.131 109.872 118.131 134.217 134.481C142.841 140.23 148.591 147.687 150.747 155.861Z" fill="#D6D6D6"/>
</svg>
